<svg width="40" height="40" viewBox="0 0 40 40" fill="none" xmlns="http://www.w3.org/2000/svg">
<g clip-path="url(#clip0_785_12003)">
<path d="M20 -0.00195312C17.5518 -0.00195312 15.204 0.970572 13.4729 2.70168C11.7418 4.43278 10.7692 6.78066 10.7692 9.22882C10.7692 14.3273 18.7985 26.9873 18.7985 33.8442H21.2015C21.2015 27.0104 29.2308 13.9119 29.2308 9.22882C29.2308 6.78066 28.2582 4.43278 26.5271 2.70168C24.796 0.970572 22.4482 -0.00195312 20 -0.00195312ZM20 4.61343C21.2241 4.61343 22.398 5.09969 23.2636 5.96525C24.1291 6.8308 24.6154 8.00474 24.6154 9.22882C24.6154 10.4529 24.1291 11.6268 23.2636 12.4924C22.398 13.3579 21.2241 13.8442 20 13.8442C18.7759 13.8442 17.602 13.3579 16.7364 12.4924C15.8709 11.6268 15.3846 10.4529 15.3846 9.22882C15.3846 8.00474 15.8709 6.8308 16.7364 5.96525C17.602 5.09969 18.7759 4.61343 20 4.61343ZM10.5292 26.5842C10.4964 26.5995 10.464 26.6159 10.4323 26.6334C7.59385 27.1319 5.18769 27.815 3.36615 28.7488C2.45385 29.215 1.66769 29.7673 1.05846 30.4304C0.447692 31.095 0 31.958 0 32.9304C0 34.3888 0.966154 35.5288 2.11538 36.3442C3.26462 37.1596 4.71538 37.7827 6.49077 38.315C10.0369 39.3796 14.7769 39.998 20 39.998C25.2231 39.998 29.9631 39.3796 33.5092 38.315C35.2831 37.7827 36.7354 37.1611 37.8846 36.3442C39.0338 35.5288 40 34.3888 40 32.9304C40 31.955 39.5538 31.0473 38.9415 30.3827C38.3292 29.718 37.5508 29.215 36.6338 28.7473C34.8031 27.8134 32.3738 27.1304 29.5185 26.6319C29.3177 26.593 29.1112 26.5945 28.911 26.6363C28.7108 26.6782 28.521 26.7595 28.3526 26.8755C28.1843 26.9916 28.0407 27.1401 27.9304 27.3123C27.8201 27.4844 27.7452 27.6769 27.7101 27.8784C27.675 28.0798 27.6805 28.2863 27.7261 28.4856C27.7717 28.6849 27.8567 28.8732 27.9759 29.0393C28.0951 29.2055 28.2463 29.3462 28.4206 29.4532C28.5948 29.5602 28.7887 29.6314 28.9908 29.6627C31.6415 30.1242 33.8446 30.778 35.24 31.4888C35.9385 31.8427 36.4292 32.2227 36.6831 32.498C36.9369 32.7734 36.9231 32.8827 36.9231 32.9304C36.9231 33.0027 36.8246 33.335 36.1062 33.8442C35.3877 34.3534 34.1631 34.9119 32.5954 35.3827C29.4615 36.3227 24.9723 36.9211 20 36.9211C15.0277 36.9211 10.5385 36.3227 7.40308 35.3827C5.83692 34.9119 4.61231 34.3534 3.89538 33.8442C3.17538 33.335 3.07692 33.0027 3.07692 32.9304C3.07692 32.8842 3.06615 32.7719 3.31692 32.498C3.56923 32.2242 4.06615 31.8427 4.76 31.4888C6.14462 30.7796 8.32615 30.1257 10.9615 29.6611C11.1665 29.6362 11.3645 29.5707 11.5439 29.4684C11.7233 29.3662 11.8805 29.2291 12.0064 29.0654C12.1322 28.9016 12.2241 28.7145 12.2768 28.5148C12.3294 28.3151 12.3417 28.1069 12.313 27.9024C12.2843 27.6979 12.2151 27.5012 12.1094 27.3237C12.0038 27.1463 11.8638 26.9917 11.6978 26.869C11.5317 26.7462 11.3428 26.6578 11.1422 26.6089C10.9415 26.56 10.7332 26.5516 10.5292 26.5842Z" fill="#FEFDFA"/>
</g>
<defs>
<clipPath id="clip0_785_12003">
<rect width="40" height="40" fill="white" transform="translate(0 -0.00195312)"/>
</clipPath>
</defs>
</svg>
