<svg xmlns="http://www.w3.org/2000/svg" width="40" height="40" fill="none"><g clip-path="url('#clip0_785_12003')"><path fill="#FEFDFA" d="M20-.002a9.23 9.23 0 0 0-9.23 9.23c0 5.1 8.029 17.76 8.029 24.616h2.403c0-6.834 8.029-19.932 8.029-24.615A9.23 9.23 0 0 0 20-.002m0 4.615a4.615 4.615 0 1 1 0 9.231 4.615 4.615 0 0 1 0-9.23m-9.47 21.971-.098.05c-2.838.498-5.244 1.181-7.066 2.115-.912.466-1.698 1.018-2.308 1.681C.448 31.095 0 31.958 0 32.93c0 1.459.966 2.599 2.115 3.414 1.15.816 2.6 1.439 4.376 1.971 3.546 1.065 8.286 1.683 13.509 1.683s9.963-.618 13.51-1.683c1.773-.532 3.225-1.154 4.375-1.97S40 34.388 40 32.93c0-.975-.446-1.883-1.059-2.547-.612-.665-1.39-1.168-2.307-1.636-1.83-.934-4.26-1.617-7.116-2.115a1.54 1.54 0 1 0-.527 3.03c2.65.462 4.854 1.116 6.249 1.827.698.354 1.19.734 1.443 1.009s.24.385.24.432c0 .073-.098.405-.817.914-.718.51-1.943 1.068-3.51 1.539-3.134.94-7.624 1.538-12.596 1.538s-9.461-.598-12.597-1.538c-1.566-.471-2.79-1.03-3.508-1.539-.72-.509-.818-.841-.818-.914 0-.046-.01-.158.24-.432.252-.274.75-.655 1.443-1.01 1.385-.708 3.566-1.362 6.201-1.827a1.554 1.554 0 1 0-.432-3.077"/></g><defs><clipPath id="clip0_785_12003"><path fill="#fff" d="M0-.002h40v40H0z"/></clipPath></defs></svg>