<svg width="451" height="65" fill="none" xmlns="http://www.w3.org/2000/svg"><g clip-path="url('#clip0_457_1012')"><path d="M27.773 16.455c0 1.435-.151 2.997-.463 4.689a46.518 46.518 0 0 1-1.281 5.18 54.078 54.078 0 0 1-1.982 5.353 57.507 57.507 0 0 1-2.54 5.159 46.727 46.727 0 0 1-2.962 4.624c-1.033 1.435-2.12 2.687-3.24 3.747-1.11 1.06-2.24 1.894-3.381 2.505-1.152.599-2.283.899-3.403.899-.71 0-1.41-.129-2.078-.396a5.296 5.296 0 0 1-1.765-1.092 5.523 5.523 0 0 1-1.217-1.756c-.312-.695-.463-1.488-.463-2.365 0-.771.118-1.638.355-2.612.237-.985.55-2.045.926-3.158a65.55 65.55 0 0 1 1.325-3.468c.506-1.21 1.012-2.43 1.54-3.661a398.835 398.835 0 0 0 1.539-3.66 52.78 52.78 0 0 0 1.324-3.448c.388-1.102.71-2.13.948-3.072.237-.963.355-1.809.355-2.547 0-.332-.032-.653-.108-.942a1.928 1.928 0 0 0-.29-.771 1.412 1.412 0 0 0-.593-.524c-.236-.129-.527-.193-.882-.193-.603 0-1.25.203-1.938.61-.668.385-1.368.995-2.078 1.82-.711.824-1.443 1.862-2.186 3.136-.732 1.252-1.454 2.74-2.164 4.453L.5 24.59c.797-1.937 1.594-3.564 2.38-4.892.796-1.338 1.604-2.408 2.422-3.221.818-.825 1.637-1.413 2.466-1.777a6.216 6.216 0 0 1 2.52-.546c1.27 0 2.26.342 2.96 1.027.71.685 1.077 1.638 1.077 2.869 0 .728-.119 1.584-.355 2.57-.237.973-.56 2.033-.97 3.178a75.076 75.076 0 0 1-1.345 3.618 323.074 323.074 0 0 1-1.562 3.843c-.516 1.285-1.033 2.548-1.54 3.8a109.41 109.41 0 0 0-1.367 3.575 35.081 35.081 0 0 0-.947 3.115c-.237.953-.356 1.756-.356 2.43 0 .503.076.963.216 1.381.14.407.344.76.614 1.07.28.31.613.546.99.707.377.171.818.246 1.303.246.883 0 1.798-.267 2.756-.813.97-.557 1.938-1.306 2.907-2.259a28.501 28.501 0 0 0 2.907-3.383 41.283 41.283 0 0 0 2.714-4.185 47.967 47.967 0 0 0 2.4-4.688 52.315 52.315 0 0 0 1.896-4.85c.549-1.616.969-3.19 1.26-4.72.312-1.53.462-2.954.462-4.26 0-.91-.064-1.67-.193-2.302-.13-.642-.27-1.177-.42-1.605-.151-.429-.291-.782-.42-1.05-.13-.267-.194-.481-.194-.652 0-.182.086-.375.248-.59.172-.213.42-.31.753-.31.334 0 .614.129.819.397.226.246.398.588.527 1.027.14.418.237.9.29 1.445.055.546.087 1.103.087 1.67h-.032Zm3.865 4.453a3.99 3.99 0 0 0 1.324-.31 4.98 4.98 0 0 0 1.12-.664c.334-.268.603-.546.797-.835.194-.31.29-.6.29-.878a.965.965 0 0 0-.15-.524c-.237 0-.452-.054-.635-.15a1.578 1.578 0 0 1-.754-.9 2.256 2.256 0 0 1-.086-.61c0-.224.032-.449.108-.663a2.39 2.39 0 0 1 .333-.61c.151-.182.345-.321.57-.418.227-.107.485-.17.776-.17.29 0 .57.074.797.213.237.129.43.3.592.525.15.225.27.47.334.749.075.278.107.567.107.856 0 .814-.183 1.531-.549 2.173a5.334 5.334 0 0 1-1.367 1.606c-.55.428-1.163.77-1.852 1.006a6.461 6.461 0 0 1-2.024.332l.248-.728h.021Zm40.16-6.38a6.33 6.33 0 0 0-1.388.568 9.248 9.248 0 0 0-1.303.877c-.42.321-.818.675-1.173 1.07-.356.376-.657.75-.926 1.125a9.537 9.537 0 0 0-.507.835 9.866 9.866 0 0 0-.549 1.113c-.193.428-.42.963-.667 1.584-.248.61-.55 1.37-.883 2.259-.323.878-.71 1.916-1.152 3.115-.43 1.199-.937 2.59-1.518 4.185-1.12 3.062-2.261 5.695-3.424 7.878-1.163 2.184-2.401 3.982-3.704 5.395-1.303 1.392-2.713 2.43-4.231 3.094-1.497.653-3.144.985-4.942.985-2.423 0-4.264-.535-5.535-1.606-1.249-1.092-1.873-2.569-1.873-4.453 0-.706.086-1.38.247-2.012.173-.632.388-1.178.668-1.649.28-.47.603-.845.97-1.124.376-.278.774-.417 1.173-.417.366 0 .656.096.861.289.215.192.312.47.312.835 0 .278-.075.514-.215.706-.13.193-.29.364-.506.503-.194.129-.41.236-.657.332a7.802 7.802 0 0 1-.689.246c-.452.15-.764.428-.947.835-.173.386-.248.9-.248 1.531 0 .792.13 1.51.398 2.152.28.631.679 1.166 1.195 1.627.517.45 1.152.792 1.895 1.049.743.235 1.583.353 2.52.353s1.744-.086 2.498-.246a7.173 7.173 0 0 0 2.1-.835 8.766 8.766 0 0 0 1.873-1.584c.592-.664 1.174-1.5 1.744-2.484.592-.985 1.184-2.162 1.787-3.51.614-1.371 1.27-2.944 1.981-4.721.56-1.435 1.056-2.698 1.497-3.79.43-1.092.818-2.044 1.152-2.89.334-.835.636-1.563.883-2.173.27-.631.506-1.177.71-1.648.227-.471.431-.889.636-1.253.194-.364.398-.717.614-1.07.646-1.07 1.4-2.098 2.271-3.072a15.754 15.754 0 0 1 2.908-2.526c-.959.288-1.928.524-2.918.685a15.43 15.43 0 0 1-2.649.246c-.743 0-1.486-.075-2.229-.214a38.692 38.692 0 0 1-2.12-.46 95.064 95.064 0 0 0-1.896-.46c-.592-.14-1.098-.215-1.54-.215a3.668 3.668 0 0 0-2.8 1.338 4.51 4.51 0 0 0-.86 1.53c-.216.59-.312 1.242-.312 1.97 0 .835.14 1.553.42 2.13l-.733.418a4.812 4.812 0 0 1-.42-1.113 6.283 6.283 0 0 1-.15-1.424c0-.974.183-1.852.549-2.633a5.787 5.787 0 0 1 1.518-1.991 6.983 6.983 0 0 1 2.293-1.253 9.207 9.207 0 0 1 2.886-.438c.506 0 .937.032 1.303.107.377.053.732.128 1.076.224.334.097.679.204 1.034.31.366.097.786.194 1.26.29.473.096 1.033.182 1.68.246.645.054 1.431.086 2.357.086a17.172 17.172 0 0 0 3.327-.31c.496-.108.98-.247 1.475-.397.496-.171 1.023-.353 1.594-.546v.396Zm27.252 1.927c0 1.435-.15 2.997-.463 4.689a46.495 46.495 0 0 1-1.281 5.18 54.08 54.08 0 0 1-1.981 5.353 57.454 57.454 0 0 1-2.541 5.159 46.708 46.708 0 0 1-2.961 4.624c-1.034 1.435-2.121 2.687-3.241 3.747-1.109 1.06-2.24 1.894-3.38 2.505-1.153.599-2.284.899-3.403.899-.71 0-1.41-.129-2.078-.396a5.296 5.296 0 0 1-1.766-1.092 5.523 5.523 0 0 1-1.217-1.756c-.312-.695-.463-1.488-.463-2.365 0-.771.119-1.638.356-2.612.237-.985.549-2.045.926-3.158a65.53 65.53 0 0 1 1.324-3.468c.506-1.21 1.012-2.43 1.54-3.661a398.844 398.844 0 0 0 1.54-3.66 52.803 52.803 0 0 0 1.324-3.448c.387-1.102.71-2.13.947-3.072.237-.963.355-1.809.355-2.547 0-.332-.032-.653-.107-.942a1.925 1.925 0 0 0-.291-.771 1.41 1.41 0 0 0-.592-.524c-.237-.129-.528-.193-.883-.193-.603 0-1.249.203-1.938.61-.668.385-1.367.995-2.078 1.82-.71.824-1.443 1.862-2.186 3.136-.732 1.252-1.453 2.74-2.164 4.453l-.57-.375c.796-1.937 1.593-3.564 2.379-4.892.797-1.338 1.604-2.408 2.422-3.221.819-.825 1.637-1.413 2.466-1.777a6.216 6.216 0 0 1 2.52-.546c1.27 0 2.26.342 2.96 1.027.711.685 1.077 1.638 1.077 2.869 0 .728-.118 1.584-.355 2.57-.237.973-.56 2.033-.97 3.178a74.964 74.964 0 0 1-1.345 3.618 321.42 321.42 0 0 1-1.561 3.843c-.517 1.285-1.034 2.548-1.54 3.8a109.18 109.18 0 0 0-1.367 3.575 35.028 35.028 0 0 0-.948 3.115c-.237.953-.355 1.756-.355 2.43 0 .503.075.963.215 1.381.14.407.345.76.614 1.07.28.31.614.546.99.707.377.171.819.246 1.303.246.883 0 1.798-.267 2.757-.813.969-.557 1.938-1.306 2.907-2.259a28.51 28.51 0 0 0 2.907-3.383 41.283 41.283 0 0 0 2.713-4.185 47.99 47.99 0 0 0 2.401-4.688 52.344 52.344 0 0 0 1.895-4.85 34.99 34.99 0 0 0 1.26-4.72c.312-1.53.463-2.954.463-4.26 0-.91-.065-1.67-.194-2.302a12.16 12.16 0 0 0-.42-1.605c-.15-.429-.29-.782-.42-1.05-.129-.267-.194-.481-.194-.652 0-.182.087-.375.248-.59.172-.213.42-.31.754-.31s.613.129.818.397c.226.246.398.588.528 1.027.14.418.236.9.29 1.445.054.546.086 1.103.086 1.67h-.032Zm2.057 19.022c0 .246-.076.46-.227.631-.139.15-.333.29-.57.396a3.894 3.894 0 0 1-.862.268c-.322.075-.656.128-1.012.193-.29.053-.646.192-1.055.395-.409.215-.796.525-1.173.964-.377.417-.7.974-.97 1.67-.247.685-.376 1.53-.376 2.547 0 1.017.14 1.916.42 2.612.29.685.678 1.231 1.152 1.649a4.292 4.292 0 0 0 1.615.899 7.026 7.026 0 0 0 1.895.246c.732 0 1.421-.107 2.078-.31a7.743 7.743 0 0 0 1.916-.942 11.568 11.568 0 0 0 1.831-1.585c.603-.631 1.216-1.391 1.852-2.258a38.644 38.644 0 0 0 2.25-3.533 94.878 94.878 0 0 0 2.186-4.035c.71-1.413 1.41-2.837 2.078-4.282a458.113 458.113 0 0 0 2.002-4.26c.657-1.392 1.303-2.73 1.917-4.014a79.322 79.322 0 0 1 1.83-3.511c.614-1.103 1.174-1.991 1.658-2.655.506-.685.98-1.199 1.432-1.552.463-.364.926-.6 1.389-.706a5.663 5.663 0 0 1 1.518-.193c1.572 0 2.703.332 3.403 1.006.7.674 1.055 1.67 1.055 2.987 0 1.017-.172 2.226-.528 3.639a68.183 68.183 0 0 1-1.324 4.539 199.965 199.965 0 0 1-1.723 4.977 184.845 184.845 0 0 0-1.722 4.956 58.24 58.24 0 0 0-1.325 4.496c-.355 1.38-.527 2.558-.527 3.532 0 1.06.247 1.884.732 2.462.495.59 1.303.878 2.444.878a5.75 5.75 0 0 0 2.67-.653c.872-.428 1.723-1.07 2.563-1.927.85-.867 1.722-1.937 2.584-3.222a62.654 62.654 0 0 0 2.778-4.474l1.098-1.927.57.396-1.098 1.927a67.252 67.252 0 0 1-2.95 4.785c-.926 1.349-1.852 2.483-2.778 3.382-.926.91-1.873 1.585-2.842 2.024a6.991 6.991 0 0 1-3.069.685c-.872 0-1.636-.129-2.293-.397-.657-.267-1.217-.631-1.658-1.091a4.843 4.843 0 0 1-1.034-1.606 5.896 5.896 0 0 1-.334-2.012c0-.61.076-1.338.237-2.173.172-.835.388-1.745.657-2.72.28-.984.592-2.022.947-3.114.367-1.103.743-2.227 1.131-3.361h-8.85c-.517 1.07-1.056 2.13-1.605 3.179a85.716 85.716 0 0 1-1.615 3.03 59.601 59.601 0 0 1-1.615 2.782 36 36 0 0 1-1.572 2.366 20.567 20.567 0 0 1-2.035 2.43 10.952 10.952 0 0 1-2.024 1.627c-.689.428-1.389.75-2.1.942a8.472 8.472 0 0 1-2.228.289c-1.863 0-3.327-.535-4.372-1.606-1.033-1.092-1.56-2.654-1.56-4.699 0-1.102.15-2.13.44-3.093.291-.975.7-1.83 1.217-2.548a6.017 6.017 0 0 1 1.83-1.713 4.352 4.352 0 0 1 2.272-.631c.41 0 .733.075.991.214.269.139.398.407.398.792l-.01.01Zm19.725-16.014c-.377.706-.797 1.51-1.239 2.409-.43.888-.893 1.84-1.367 2.847a339.282 339.282 0 0 1-1.497 3.136c-.506 1.07-1.022 2.162-1.55 3.265h8.732c.463-1.338.915-2.665 1.346-3.993.452-1.327.851-2.59 1.195-3.8a39.61 39.61 0 0 0 .861-3.36c.227-1.028.334-1.928.334-2.677 0-.492-.054-.888-.151-1.188-.096-.31-.236-.546-.419-.707a1.174 1.174 0 0 0-.636-.353 2.656 2.656 0 0 0-.796-.107c-.463 0-.894.075-1.282.214-.377.14-.753.386-1.12.728-.366.353-.742.814-1.141 1.402a25.766 25.766 0 0 0-1.281 2.216l.011-.032Z" fill="#FEFDFA"/><path d="M188.952 14.258c-1.996 4.366-4.919 6.88-7.185 6.078-1.726-.607-2.266-2.395-2.093-4.529l1.295-1.711c.992-1.3.259-1.387-.734-1.095.032-.097.054-.194.086-.292.097.022.194.033.324.033.453 0 .248-.412-.065-.78.173-.488.367-.965.583-1.43.313-.694.647-1.333.992-1.929.238-.108.292-.26.259-.422 1.856-2.968 4.035-4.453 5.923-3.78 2.838 1.007 2.525 5.654.615 9.868v-.01Zm-40.134 2.958c-3.183.866-6.096-3.294-7.488-7.28-1.629-4.626-1.219-8.092 1.187-8.742 2.158-.585 4.402 1.321 6.042 4.105-.313.737-.896 2.644-.086 2.644.593 0 .938-.076 1.143-.195a1.797 1.797 0 0 1-.054-.25h.087c.021.055.054.12.075.174a.933.933 0 0 1-.108.065c.097.433.205.747.345.747h.065v.022c.507 1.43.799 2.773.885 3.954-.205 1.365-.54 2.762-.852 3.91a2.46 2.46 0 0 1-1.263.846h.022Zm.216-11.06c.097.183.183.367.28.562-.421-.151-.41-.368-.28-.563Zm40.188-2.406c-4.024-1.419-8.124 1.733-10.508 6.966-.054.119-.097.238-.151.357-.356.38-.637.715-.766.954-.809 1.495-9.505 13.736-11.933 16.812-4.229-6.153-7.552-11.45-10.961-17.105-.259-.422-1.78-2.708-3.129-4.842a13.934 13.934 0 0 0-2.201-3.911c0-.033-.011-.043-.032-.043-1.629-1.983-3.949-3.51-6.797-2.73-4.143 1.126-5.071 5.85-3.172 11.234 1.435 4.084 4.995 7.864 9.03 6.76a5.532 5.532 0 0 0 2.018-1.008l10.95 16.228-14.694 20.463a496.347 496.347 0 0 0-4.51 6.424l4.866-1.668 16.377-22.218c4.877 7.225 17.554 20.896 20.165 28.577.658-2.09 2.006-5.579-.529-10.736-1.1-2.242-13.788-20.636-15.331-22.846l10.077-13.347c.475 1.322 1.413 2.384 2.924 2.914 4.099 1.452 8.21-1.852 10.53-6.944 1.327-2.903 2.395-8.644-2.201-10.28l-.022-.01Z" fill="url('#paint0_linear_457_1012')"/><path d="M202.437 49.168c-1.566 0-2.959-.247-4.18-.73a8.284 8.284 0 0 1-3.1-2.072c-.832-.923-1.469-2.05-1.923-3.371-.432-1.342-.648-2.867-.648-4.574 0-.934.065-1.932.195-2.973a26.31 26.31 0 0 1 .637-3.189 27.918 27.918 0 0 1 1.707-4.842 26.285 26.285 0 0 1 2.43-4.251 25.422 25.422 0 0 1 3.035-3.521 20.386 20.386 0 0 1 3.5-2.706c1.22-.74 2.495-1.31 3.823-1.696a13.584 13.584 0 0 1 4.029-.612 8.91 8.91 0 0 1 1.966.226c.659.15 1.253.407 1.772.772.54.355.961.827 1.285 1.428.335.59.508 1.32.508 2.201 0 .784-.119 1.514-.357 2.18a6.618 6.618 0 0 1-.972 1.825 9.056 9.056 0 0 1-1.436 1.513 12.13 12.13 0 0 1-1.772 1.235l-.378-.526c1.134-.913 1.977-1.911 2.506-2.995a7.64 7.64 0 0 0 .821-3.457c0-1.203-.292-2.169-.886-2.749-.572-.569-1.426-.858-2.549-.858-1.437 0-2.895.429-4.385 1.277-1.48.837-2.895 1.997-4.256 3.478-1.361 1.482-2.614 3.232-3.759 5.24-1.145 1.996-2.085 4.154-2.83 6.484a34.969 34.969 0 0 0-1.102 4.423c-.248 1.438-.378 2.791-.378 4.047 0 5.186 2.344 7.784 7.021 7.784 2.668 0 5.131-.838 7.388-2.512 2.247-1.697 4.375-4.284 6.373-7.784l1.102-1.932.572.397-1.101 1.932c-1.07 1.868-2.161 3.5-3.273 4.864-1.113 1.374-2.268 2.501-3.457 3.392-1.199.891-2.452 1.557-3.758 1.997-1.307.45-2.69.666-4.159.666l-.011-.011Zm16.407-16.941a28.006 28.006 0 0 1 1.707-4.82 28.124 28.124 0 0 1 2.452-4.241 24.253 24.253 0 0 1 3.013-3.543 20.077 20.077 0 0 1 3.457-2.684 15.55 15.55 0 0 1 3.759-1.717 12.99 12.99 0 0 1 3.921-.612c2.657 0 4.687.816 6.102 2.458 1.405 1.632 2.107 4.005 2.107 7.107 0 1.331-.13 2.727-.4 4.198a30.478 30.478 0 0 1-1.123 4.423 29.057 29.057 0 0 1-1.945 4.509 28.063 28.063 0 0 1-2.495 3.961 26.948 26.948 0 0 1-2.927 3.275 19.27 19.27 0 0 1-3.251 2.49 14.857 14.857 0 0 1-3.435 1.568 11.335 11.335 0 0 1-3.478.569c-1.307 0-2.473-.236-3.5-.709a7.126 7.126 0 0 1-2.613-2.05c-.713-.913-1.264-2.018-1.642-3.318-.367-1.31-.551-2.79-.551-4.444 0-1.02.076-2.072.216-3.146.14-1.095.356-2.18.637-3.274h-.011Zm7.788 15.91c1.394 0 2.808-.397 4.267-1.191 1.458-.795 2.873-1.911 4.223-3.34 1.361-1.427 2.625-3.113 3.791-5.077a36.928 36.928 0 0 0 3.035-6.485 35.529 35.529 0 0 0 1.394-4.97c.335-1.632.507-3.114.507-4.423 0-1.128-.129-2.148-.399-3.039-.249-.912-.637-1.674-1.134-2.286a4.77 4.77 0 0 0-1.815-1.428c-.713-.333-1.523-.505-2.43-.505-.972 0-1.955.193-2.949.57-1.005.375-1.987.912-2.97 1.61a18.936 18.936 0 0 0-2.852 2.512 24.266 24.266 0 0 0-2.592 3.317 31.763 31.763 0 0 0-2.258 3.962 35.15 35.15 0 0 0-1.793 4.487 36 36 0 0 0-1.101 4.51c-.249 1.47-.379 2.844-.379 4.132 0 2.491.465 4.38 1.394 5.68.929 1.299 2.29 1.953 4.072 1.953l-.011.011Zm43-20.698a22.125 22.125 0 0 0 2.236-2.534 20.541 20.541 0 0 0 1.707-2.64c.475-.87.842-1.697 1.101-2.492.249-.794.378-1.524.378-2.179 0-.279-.032-.547-.086-.816a1.612 1.612 0 0 0-.313-.687 1.335 1.335 0 0 0-.594-.483c-.238-.129-.551-.193-.929-.193-.8 0-1.62.268-2.452.816-.821.547-1.599 1.33-2.366 2.372a16.358 16.358 0 0 0-1.62 2.706c-.475.987-.94 2.05-1.393 3.188a87.457 87.457 0 0 0-1.329 3.543c-.432 1.235-.896 2.47-1.393 3.736a89.114 89.114 0 0 1-2.063 4.842 40.187 40.187 0 0 1-2.085 3.983 26.253 26.253 0 0 1-2.171 3.167 17.222 17.222 0 0 1-2.301 2.372c.67.194 1.426.398 2.236.612.832.194 1.696.376 2.593.548.896.172 1.814.311 2.743.419a24.06 24.06 0 0 0 2.765.171c1.621 0 3.035-.204 4.245-.612a10.391 10.391 0 0 0 3.316-1.846c1.005-.838 1.944-1.879 2.83-3.124.897-1.256 1.836-2.738 2.809-4.445l1.08-1.932.572.397-1.102 1.932c-1.339 2.352-2.624 4.273-3.877 5.787-1.253 1.492-2.485 2.673-3.694 3.543-1.199.848-2.387 1.438-3.565 1.76a13.192 13.192 0 0 1-3.521.483c-.799 0-1.663-.075-2.571-.214a33.013 33.013 0 0 1-2.786-.57 61.968 61.968 0 0 1-2.895-.772c-.983-.29-1.955-.59-2.917-.88a12.147 12.147 0 0 1-3.251 1.341 14.48 14.48 0 0 1-3.629.44c-.886 0-1.609-.064-2.171-.193-.551-.107-.983-.268-1.307-.461-.324-.194-.551-.419-.67-.666a1.902 1.902 0 0 1-.173-.751c0-.505.163-.913.487-1.213a3.176 3.176 0 0 1 1.22-.71 6.38 6.38 0 0 1 1.62-.353 13.419 13.419 0 0 1 1.685-.108c1.167 0 2.269.097 3.316.29 1.059.183 2.031.387 2.906.634a15.25 15.25 0 0 0 1.285-1.761 28.52 28.52 0 0 0 1.329-2.308c.464-.88.939-1.868 1.436-2.953.497-1.105 1.016-2.33 1.577-3.671a274.75 274.75 0 0 0 2.387-5.808 97.232 97.232 0 0 1 2.085-4.864 39.467 39.467 0 0 1 2.052-3.897c.702-1.16 1.491-2.158 2.366-2.995.972-.934 1.987-1.632 3.035-2.072 1.059-.45 2.074-.665 3.057-.665.659 0 1.21.085 1.642.268.453.182.799.43 1.058.751.27.312.454.666.551 1.095.108.42.173.87.173 1.364 0 1.653-.529 3.317-1.577 5.014-1.037 1.674-2.549 3.338-4.537 4.992l-.529-.655-.011-.043Zm-24.281 20.967c1.166 0 2.182-.108 3.057-.312a6.91 6.91 0 0 0 2.451-1.148c-.464-.14-.961-.28-1.479-.42-.508-.15-1.037-.289-1.588-.396a14.568 14.568 0 0 0-1.663-.29 10.511 10.511 0 0 0-1.621-.129c-.831 0-1.479.107-1.966.333-.464.215-.702.558-.702 1.052 0 .182.044.354.13.526.097.15.27.29.529.419.26.107.605.204 1.059.268.464.075 1.058.107 1.793.107v-.01Zm34.218-16.19a28.006 28.006 0 0 1 1.707-4.82 28.12 28.12 0 0 1 2.452-4.24 24.248 24.248 0 0 1 3.013-3.544 20.502 20.502 0 0 1 3.457-2.683 15.55 15.55 0 0 1 3.759-1.718 12.992 12.992 0 0 1 3.921-.612c2.657 0 4.687.816 6.092 2.458 1.404 1.632 2.106 4.005 2.106 7.107 0 1.332-.13 2.727-.4 4.198a29.12 29.12 0 0 1-1.123 4.423 29.05 29.05 0 0 1-1.944 4.51 29.044 29.044 0 0 1-2.485 3.96 26.94 26.94 0 0 1-2.927 3.275 19.259 19.259 0 0 1-3.251 2.49 14.853 14.853 0 0 1-3.435 1.568 11.279 11.279 0 0 1-3.478.57c-1.307 0-2.473-.237-3.5-.71a7.127 7.127 0 0 1-2.613-2.05c-.713-.913-1.264-2.018-1.642-3.317-.368-1.31-.551-2.792-.551-4.445 0-1.02.075-2.072.216-3.145.14-1.096.356-2.18.637-3.275h-.011Zm7.788 15.91c1.393 0 2.808-.397 4.267-1.191 1.458-.795 2.873-1.911 4.223-3.339 1.361-1.428 2.625-3.113 3.802-5.078a36.993 36.993 0 0 0 3.035-6.484 35.66 35.66 0 0 0 1.394-4.971c.334-1.632.507-3.113.507-4.423 0-1.127-.129-2.147-.399-3.038-.249-.913-.638-1.675-1.135-2.287a4.76 4.76 0 0 0-1.814-1.428c-.713-.333-1.523-.505-2.431-.505-.972 0-1.955.194-2.948.57-.994.375-1.988.912-2.971 1.61a18.978 18.978 0 0 0-2.851 2.512 24.273 24.273 0 0 0-2.592 3.317 31.63 31.63 0 0 0-2.258 3.962 35.144 35.144 0 0 0-1.793 4.487 36.183 36.183 0 0 0-1.102 4.51c-.248 1.47-.378 2.844-.378 4.133 0 2.49.465 4.38 1.394 5.679.929 1.299 2.29 1.954 4.072 1.954l-.022.01Zm28.04 1.053c-3.877 0-5.822-2.276-5.822-6.818 0-2.029.357-4.154 1.059-6.377.702-2.233 1.728-4.476 3.078-6.73a33.282 33.282 0 0 1 4.666-6.12c1.761-1.815 3.63-3.35 5.617-4.617 1.998-1.267 4.083-2.243 6.243-2.909 2.182-.666 4.386-1.01 6.6-1.01 1.501 0 2.841.151 4.007.441 1.178.29 2.182.72 2.992 1.278.821.547 1.437 1.223 1.858 2.029.421.816.637 1.728.637 2.748a7.44 7.44 0 0 1-.842 3.457 9.542 9.542 0 0 1-2.258 2.899c-.961.826-2.074 1.492-3.359 2.018-1.274.504-2.646.773-4.094.816 1.761.322 3.046.848 3.856 1.567.821.73 1.221 1.696 1.221 2.91 0 .687-.108 1.417-.313 2.2a72.66 72.66 0 0 1-.713 2.416 49.186 49.186 0 0 0-.691 2.49 9.637 9.637 0 0 0-.314 2.416c0 1.235.314 2.169.929 2.834.638.655 1.534.988 2.701.988.82 0 1.577-.161 2.3-.483.713-.322 1.458-.87 2.215-1.653.777-.784 1.598-1.836 2.473-3.146.886-1.331 1.901-2.995 3.035-4.992l1.102-1.933.572.398-1.101 1.932a124.745 124.745 0 0 1-2.344 3.94c-.691 1.117-1.34 2.083-1.966 2.899-.605.816-1.177 1.481-1.728 2.018-.551.515-1.102.934-1.664 1.235a6.285 6.285 0 0 1-1.749.655 9.458 9.458 0 0 1-1.966.193c-.962 0-1.826-.118-2.593-.354-.777-.237-1.436-.58-1.987-1.031a4.567 4.567 0 0 1-1.264-1.61 5.12 5.12 0 0 1-.443-2.137c0-.784.119-1.632.357-2.555.237-.923.507-1.836.799-2.748.292-.913.562-1.772.799-2.598.238-.827.357-1.535.357-2.137 0-.408-.065-.805-.195-1.191a4.125 4.125 0 0 0-.529-1.074 3.612 3.612 0 0 0-.799-.816 2.26 2.26 0 0 0-.951-.44c-.054.01-.151.021-.291.021a1.16 1.16 0 0 1-.422-.064c-.097-.054-.151-.129-.151-.215 0-.075.054-.129.151-.193a.65.65 0 0 1 .378-.107c.152 0 .271.01.357.043a.68.68 0 0 1 .292.128 9.635 9.635 0 0 0 3.186-1.32 10.873 10.873 0 0 0 2.549-2.244 10.503 10.503 0 0 0 1.685-2.898 8.838 8.838 0 0 0 .637-3.275c0-2.437-1.155-3.972-3.478-4.616-.777.311-1.533.773-2.279 1.385a9.67 9.67 0 0 0-1.879 2.05c-.151.226-.303.451-.443.687-.13.236-.27.548-.443.924-.173.365-.367.826-.594 1.406a118.73 118.73 0 0 0-.842 2.136c-.325.849-.713 1.89-1.156 3.103-.432 1.202-.962 2.641-1.577 4.316-1.08 2.974-2.204 5.56-3.37 7.762-1.167 2.18-2.387 3.993-3.673 5.432-1.274 1.428-2.614 2.49-4.007 3.188a9.717 9.717 0 0 1-4.407 1.053h-.011Zm16.008-26.614a17.92 17.92 0 0 1 3.543-4.316c1.361-1.213 2.808-2.115 4.32-2.684a12.95 12.95 0 0 0-1.058-.129 14.227 14.227 0 0 0-1.199-.043c-2.106 0-4.213.333-6.308.988a25.415 25.415 0 0 0-6.06 2.834c-1.922 1.213-3.737 2.706-5.444 4.466a33.358 33.358 0 0 0-4.515 5.894c-1.296 2.126-2.279 4.273-2.948 6.463-.659 2.169-.994 4.284-.994 6.356s.378 3.532 1.134 4.466c.778.934 1.826 1.406 3.165 1.406.734 0 1.415-.086 2.041-.247a5.913 5.913 0 0 0 1.837-.88c.594-.419 1.166-.966 1.728-1.632.561-.666 1.134-1.492 1.706-2.47a41.325 41.325 0 0 0 1.772-3.478 125.19 125.19 0 0 0 1.987-4.616c.638-1.589 1.178-2.963 1.642-4.112.475-1.16.886-2.158 1.221-2.974.334-.837.615-1.535.842-2.072.238-.547.454-1.009.637-1.384.184-.387.346-.72.486-.988.141-.28.292-.548.443-.816l.022-.032Zm53.898-7.59a6.344 6.344 0 0 0-1.393.569 9.246 9.246 0 0 0-1.307.88 8.533 8.533 0 0 0-1.177 1.073c-.357.376-.659.752-.929 1.128a9.563 9.563 0 0 0-.508.837c-.173.29-.356.666-.551 1.117-.194.429-.421.966-.669 1.588a90.674 90.674 0 0 0-.886 2.266c-.324.88-.713 1.921-1.156 3.124-.432 1.202-.94 2.598-1.523 4.198-1.123 3.07-2.268 5.71-3.435 7.901-1.166 2.19-2.408 3.994-3.715 5.41-1.307 1.396-2.722 2.438-4.245 3.103-1.502.655-3.154.988-4.958.988-2.43 0-4.277-.537-5.552-1.61-1.253-1.095-1.879-2.577-1.879-4.466 0-.709.086-1.385.248-2.019.173-.633.389-1.18.67-1.653.281-.472.605-.848.972-1.127.378-.28.778-.419 1.177-.419.368 0 .659.097.864.29.216.193.314.472.314.837 0 .28-.076.516-.216.709-.13.193-.292.365-.508.505a3.452 3.452 0 0 1-.659.332 7.797 7.797 0 0 1-.691.247c-.454.15-.767.43-.951.838-.173.386-.248.901-.248 1.535 0 .794.129 1.514.399 2.158.281.633.681 1.17 1.199 1.632.519.45 1.156.794 1.901 1.052.746.236 1.588.354 2.528.354s1.75-.086 2.506-.247a7.196 7.196 0 0 0 2.106-.837 8.822 8.822 0 0 0 1.88-1.59c.594-.665 1.177-1.502 1.749-2.49.594-.988 1.188-2.169 1.793-3.521a127.885 127.885 0 0 0 1.988-4.735 337.254 337.254 0 0 1 1.501-3.8c.432-1.095.821-2.05 1.156-2.899.335-.837.637-1.567.886-2.18.27-.633.507-1.18.713-1.652.226-.473.432-.892.637-1.256.194-.366.399-.72.615-1.074a20.522 20.522 0 0 1 2.28-3.081 15.766 15.766 0 0 1 2.916-2.534 22.73 22.73 0 0 1-2.927.687c-.983.172-1.869.247-2.657.247-.746 0-1.491-.075-2.236-.215-.735-.14-1.437-.29-2.128-.461a95.439 95.439 0 0 0-1.901-.462c-.594-.14-1.102-.215-1.545-.215-.529 0-1.047.119-1.544.355a3.672 3.672 0 0 0-1.264.987 4.522 4.522 0 0 0-.864 1.536c-.216.59-.313 1.245-.313 1.975 0 .837.14 1.557.421 2.136l-.735.42a4.862 4.862 0 0 1-.421-1.118 6.312 6.312 0 0 1-.151-1.427c0-.977.184-1.858.551-2.641a5.803 5.803 0 0 1 1.523-1.997 7.013 7.013 0 0 1 2.3-1.256 9.242 9.242 0 0 1 2.895-.44c.508 0 .94.032 1.307.107.378.054.735.129 1.08.225.335.097.681.204 1.037.312.367.096.789.193 1.264.29.475.096 1.037.182 1.685.247.648.053 1.437.085 2.365.085a17.181 17.181 0 0 0 3.338-.311c.497-.107.983-.247 1.48-.397.497-.172 1.026-.354 1.598-.548v.398Zm22.262 9.662c.529-.795.929-1.546 1.177-2.244a6.35 6.35 0 0 0 .378-2.137c0-.719-.129-1.427-.378-2.029a4.296 4.296 0 0 0-1.058-1.556 4.693 4.693 0 0 0-1.707-.988c-.659-.236-1.404-.354-2.236-.354-.983 0-1.879.16-2.7.483a5.904 5.904 0 0 0-2.063 1.363 6.193 6.193 0 0 0-1.307 2.115c-.313.827-.465 1.74-.465 2.749 0 1.009.141 1.996.422 2.952s.637 1.9 1.058 2.856a44.23 44.23 0 0 0 1.372 2.791c.508.923.972 1.846 1.393 2.77.422.923.778 1.857 1.059 2.791.281.934.421 1.89.421 2.856s-.151 1.91-.464 2.813a9.041 9.041 0 0 1-1.307 2.437 10.54 10.54 0 0 1-1.966 2.018 12.463 12.463 0 0 1-2.484 1.535c-.886.419-1.826.74-2.83.966-.994.226-2.009.333-3.036.333-1.566 0-2.927-.247-4.115-.73-1.188-.483-2.171-1.138-2.97-1.954a8.224 8.224 0 0 1-1.815-2.791 9.511 9.511 0 0 1-.594-3.296c0-.709.076-1.396.227-2.05a7.016 7.016 0 0 1 .637-1.74c.281-.504.605-.901.972-1.191.378-.29.789-.44 1.221-.44.378 0 .67.107.886.31.226.216.334.495.334.86 0 .29-.075.537-.226.73a1.852 1.852 0 0 1-.53.461 3.81 3.81 0 0 1-.669.312 16.51 16.51 0 0 0-.638.247c-.367.171-.669.45-.929.858-.237.408-.356 1.031-.356 1.89s.162 1.75.486 2.641a7.395 7.395 0 0 0 1.48 2.437c.67.73 1.523 1.32 2.549 1.782 1.026.451 2.247.666 3.651.666 1.22 0 2.376-.183 3.456-.548a8.578 8.578 0 0 0 2.873-1.632c.832-.73 1.48-1.632 1.966-2.705.475-1.095.713-2.351.713-3.779 0-1.074-.129-2.072-.4-2.974a14.904 14.904 0 0 0-.972-2.598 24.17 24.17 0 0 0-1.263-2.394 33.705 33.705 0 0 1-1.264-2.394 20.83 20.83 0 0 1-.972-2.512 10.518 10.518 0 0 1-.378-2.877c0-1.31.226-2.523.669-3.629a8.596 8.596 0 0 1 1.966-2.899c.843-.816 1.858-1.438 3.035-1.89 1.199-.46 2.528-.686 3.986-.686 1.059 0 2.009.129 2.852.376.853.236 1.577.59 2.171 1.052a4.547 4.547 0 0 1 1.371 1.674c.324.655.486 1.396.486 2.223 0 .912-.194 1.771-.594 2.576-.388.795-1.015 1.61-1.857 2.437l-.713-.332-.011-.011Zm27.576-1.868c.496-.88 1.08-1.718 1.749-2.512a17.794 17.794 0 0 1 2.215-2.201 42.33 42.33 0 0 1-3.694-.483c-1.21-.226-2.409-.44-3.608-.655a83.992 83.992 0 0 0-3.5-.548 26.31 26.31 0 0 0-3.391-.225c-1.253 0-2.312.107-3.165.333-.853.225-1.566.536-2.106.944-.529.387-.918.87-1.156 1.428-.238.558-.356 1.181-.356 1.868s.108 1.278.313 1.782c.216.505.518.924.907 1.256.389.322.853.57 1.394.73.55.15 1.155.226 1.814.226.454 0 .918-.032 1.415-.107.497-.076.972-.172 1.458-.29.497-.14.972-.3 1.437-.484a9.508 9.508 0 0 0 1.285-.611l.421.504a12.88 12.88 0 0 1-2.991 1.235c-1.07.29-2.085.44-3.057.44-.821 0-1.545-.107-2.193-.311a4.929 4.929 0 0 1-1.663-.945 3.951 3.951 0 0 1-1.037-1.492c-.238-.59-.357-1.256-.357-1.997 0-1.976.832-3.479 2.485-4.53 1.674-1.053 4.082-1.568 7.236-1.568 1.264 0 2.506.075 3.716.225 1.221.15 2.441.333 3.651.526 1.22.183 2.452.355 3.694.526 1.242.172 2.506.269 3.824.312a17.497 17.497 0 0 1 3.499-1.514 12.19 12.19 0 0 1 3.565-.547c.605 0 1.015.053 1.22.171.227.108.335.322.335.634 0 .461-.216.89-.659 1.299-.432.386-1.037.73-1.814 1.03-.756.29-1.664.526-2.722.687-1.059.172-2.193.247-3.414.247h-.594c-.194 0-.388 0-.594-.021a9.6 9.6 0 0 0-.551.59 8.86 8.86 0 0 0-.442.612c-.13.183-.249.398-.378.655-.13.236-.27.548-.443.945a26.82 26.82 0 0 0-.594 1.428 108.32 108.32 0 0 0-.821 2.158c-.314.848-.681 1.868-1.124 3.06-.432 1.17-.939 2.554-1.523 4.154-1.123 3.06-2.268 5.7-3.434 7.902-1.156 2.19-2.387 3.993-3.694 5.41-1.307 1.396-2.712 2.437-4.224 3.103-1.501.655-3.165.988-4.979.988-2.387 0-4.234-.526-5.53-1.568-1.275-1.052-1.923-2.555-1.923-4.509 0-.708.086-1.385.248-2.018.173-.633.389-1.181.67-1.653.281-.473.605-.849.972-1.128.378-.279.778-.418 1.199-.418.367 0 .648.107.843.333.216.214.313.515.313.923 0 .193-.033.365-.108.504a.853.853 0 0 1-.313.376 4.567 4.567 0 0 1-.638.354c-.27.13-.605.269-1.015.44-.41.183-.713.44-.907.773-.195.323-.292.838-.292 1.557 0 1.718.519 3.017 1.566 3.897 1.037.87 2.614 1.3 4.731 1.3.854 0 1.642-.076 2.366-.215a6.402 6.402 0 0 0 2.009-.752c.637-.376 1.231-.891 1.793-1.535.572-.644 1.155-1.46 1.728-2.459.594-.987 1.199-2.179 1.815-3.564.637-1.385 1.317-3.017 2.063-4.885.615-1.578 1.155-2.941 1.598-4.09.465-1.149.854-2.126 1.178-2.93.334-.828.615-1.515.842-2.051.227-.548.411-1.01.573-1.385.172-.376.313-.687.442-.945.13-.258.26-.494.4-.73l.022.01Zm13.674-8.074c-.886 0-1.782.13-2.7.398-.918.268-1.793.622-2.636 1.073a38.93 38.93 0 0 0 2.323-.15 31.7 31.7 0 0 0 2.03-.29 8.92 8.92 0 0 0 1.415-.354c.357-.14.529-.28.529-.419 0-.172-.313-.247-.95-.247l-.011-.01Z" fill="#FEFDFA"/></g><defs><linearGradient id="paint0_linear_457_1012" x1="165.595" y1=".002" x2="165.595" y2="65" gradientUnits="userSpaceOnUse"><stop stop-color="#C08D58"/><stop offset="1" stop-color="#FEF1BA"/></linearGradient><clipPath id="clip0_457_1012"><path fill="#fff" transform="translate(.5)" d="M0 0h450v65H0z"/></clipPath></defs></svg>