<svg xmlns="http://www.w3.org/2000/svg" width="451" height="65" fill="none"><g clip-path="url('#clip0_457_1012')"><path fill="#FEFDFA" d="M27.773 16.455c0 1.435-.151 2.997-.463 4.689a47 47 0 0 1-1.281 5.18 54 54 0 0 1-1.982 5.353 58 58 0 0 1-2.54 5.159 47 47 0 0 1-2.962 4.624c-1.033 1.435-2.12 2.687-3.24 3.747-1.11 1.06-2.24 1.894-3.381 2.505-1.152.599-2.283.899-3.403.899-.71 0-1.41-.129-2.078-.396a5.3 5.3 0 0 1-1.765-1.092 5.5 5.5 0 0 1-1.217-1.756c-.312-.695-.463-1.488-.463-2.365 0-.771.118-1.638.355-2.612.237-.985.55-2.045.926-3.158a66 66 0 0 1 1.325-3.468c.506-1.21 1.012-2.43 1.54-3.661a399 399 0 0 0 1.539-3.66 53 53 0 0 0 1.324-3.448c.388-1.102.71-2.13.948-3.072.237-.963.355-1.809.355-2.547 0-.332-.032-.653-.108-.942a1.9 1.9 0 0 0-.29-.771 1.4 1.4 0 0 0-.593-.524c-.236-.129-.527-.193-.882-.193q-.905 0-1.938.61c-.668.385-1.368.995-2.078 1.82-.711.824-1.443 1.862-2.186 3.136-.732 1.252-1.454 2.74-2.164 4.453L.5 24.59c.797-1.937 1.594-3.564 2.38-4.892.796-1.338 1.604-2.408 2.422-3.221.818-.825 1.637-1.413 2.466-1.777a6.2 6.2 0 0 1 2.52-.546c1.27 0 2.26.342 2.96 1.027.71.685 1.077 1.638 1.077 2.869q0 1.092-.355 2.57-.355 1.46-.97 3.178a75 75 0 0 1-1.345 3.618 323 323 0 0 1-1.562 3.843c-.516 1.285-1.033 2.548-1.54 3.8a109 109 0 0 0-1.367 3.575 35 35 0 0 0-.947 3.115c-.237.953-.356 1.756-.356 2.43 0 .503.076.963.216 1.381.14.407.344.76.614 1.07.28.31.613.546.99.707.377.171.818.246 1.303.246.883 0 1.798-.267 2.756-.813.97-.557 1.938-1.306 2.907-2.259a28.5 28.5 0 0 0 2.907-3.383 41 41 0 0 0 2.714-4.185 48 48 0 0 0 2.4-4.688 52 52 0 0 0 1.896-4.85q.823-2.425 1.26-4.72c.312-1.53.462-2.954.462-4.26 0-.91-.064-1.67-.193-2.302q-.195-.963-.42-1.605c-.151-.429-.291-.782-.42-1.05-.13-.267-.194-.481-.194-.652 0-.182.086-.375.248-.59.172-.213.42-.31.753-.31.334 0 .614.129.819.397.226.246.398.588.527 1.027q.21.627.29 1.445c.055.546.087 1.103.087 1.67zm3.865 4.453a4 4 0 0 0 1.324-.31 5 5 0 0 0 1.12-.664c.334-.268.603-.546.797-.835q.29-.463.29-.878a.97.97 0 0 0-.15-.524c-.237 0-.452-.054-.635-.15a1.58 1.58 0 0 1-.754-.9 2.3 2.3 0 0 1-.086-.61c0-.224.032-.449.108-.663a2.4 2.4 0 0 1 .333-.61c.151-.182.345-.321.57-.418.227-.107.485-.17.776-.17.29 0 .57.074.797.213.237.129.43.3.592.525.15.225.27.47.334.749.075.278.107.567.107.856 0 .814-.183 1.531-.549 2.173a5.3 5.3 0 0 1-1.367 1.606c-.55.428-1.163.77-1.852 1.006a6.5 6.5 0 0 1-2.024.332l.248-.728zm40.16-6.38a6.3 6.3 0 0 0-1.388.568 9 9 0 0 0-1.303.877c-.42.321-.818.675-1.173 1.07-.356.376-.657.75-.926 1.125a10 10 0 0 0-.507.835 10 10 0 0 0-.549 1.113c-.193.428-.42.963-.667 1.584-.248.61-.55 1.37-.883 2.259-.323.878-.71 1.916-1.152 3.115-.43 1.199-.937 2.59-1.518 4.185-1.12 3.062-2.261 5.695-3.424 7.878-1.163 2.184-2.401 3.982-3.704 5.395-1.303 1.392-2.713 2.43-4.231 3.094-1.497.653-3.144.985-4.942.985-2.423 0-4.264-.535-5.535-1.606-1.249-1.092-1.873-2.569-1.873-4.453 0-.706.086-1.38.247-2.012.173-.632.388-1.178.668-1.649q.42-.705.97-1.124c.376-.278.774-.417 1.173-.417.366 0 .656.096.861.289.215.192.312.47.312.835 0 .278-.075.514-.215.706-.13.193-.29.364-.506.503-.194.129-.41.236-.657.332a8 8 0 0 1-.689.246c-.452.15-.764.428-.947.835-.173.386-.248.9-.248 1.531 0 .792.13 1.51.398 2.152.28.631.679 1.166 1.195 1.627.517.45 1.152.792 1.895 1.049q1.114.353 2.52.353c.937 0 1.744-.086 2.498-.246a7.2 7.2 0 0 0 2.1-.835 8.8 8.8 0 0 0 1.873-1.584c.592-.664 1.174-1.5 1.744-2.484.592-.985 1.185-2.162 1.787-3.51.614-1.371 1.27-2.944 1.981-4.721.56-1.435 1.056-2.698 1.497-3.79.43-1.092.818-2.044 1.152-2.89.334-.835.636-1.563.883-2.173.27-.631.506-1.177.71-1.648.227-.471.431-.889.636-1.253.194-.364.398-.717.614-1.07.646-1.07 1.4-2.098 2.271-3.072a15.8 15.8 0 0 1 2.908-2.526c-.959.288-1.928.524-2.918.685a15.4 15.4 0 0 1-2.649.246c-.743 0-1.486-.075-2.229-.214a39 39 0 0 1-2.12-.46 95 95 0 0 0-1.896-.46c-.592-.14-1.098-.215-1.54-.215a3.668 3.668 0 0 0-2.8 1.338 4.5 4.5 0 0 0-.86 1.53c-.216.59-.312 1.242-.312 1.97 0 .835.14 1.553.42 2.13l-.733.418a4.8 4.8 0 0 1-.42-1.113 6.3 6.3 0 0 1-.15-1.424q0-1.461.549-2.633a5.8 5.8 0 0 1 1.518-1.991 7 7 0 0 1 2.293-1.253 9.2 9.2 0 0 1 2.886-.438c.506 0 .937.032 1.303.107.377.053.732.128 1.076.224.334.097.679.204 1.034.31q.549.146 1.26.29c.473.096 1.033.182 1.68.246.645.054 1.431.086 2.357.086a17.172 17.172 0 0 0 3.327-.31c.496-.108.98-.247 1.475-.397.496-.171 1.023-.353 1.594-.546v.396m27.252 1.927c0 1.435-.15 2.997-.463 4.689a47 47 0 0 1-1.281 5.18 54 54 0 0 1-1.981 5.353 58 58 0 0 1-2.541 5.159 47 47 0 0 1-2.961 4.624c-1.034 1.435-2.121 2.687-3.241 3.747-1.109 1.06-2.24 1.894-3.38 2.505-1.153.599-2.284.899-3.403.899-.71 0-1.41-.129-2.078-.396a5.3 5.3 0 0 1-1.766-1.092 5.5 5.5 0 0 1-1.217-1.756c-.312-.695-.463-1.488-.463-2.365 0-.771.119-1.638.356-2.612.237-.985.549-2.045.926-3.158a66 66 0 0 1 1.324-3.468c.506-1.21 1.012-2.43 1.54-3.661a399 399 0 0 0 1.54-3.66 53 53 0 0 0 1.324-3.448c.387-1.102.71-2.13.947-3.072.237-.963.355-1.809.355-2.547 0-.332-.032-.653-.107-.942a1.9 1.9 0 0 0-.291-.771 1.4 1.4 0 0 0-.592-.524c-.237-.129-.528-.193-.883-.193q-.904 0-1.938.61c-.668.385-1.367.995-2.078 1.82-.71.824-1.443 1.862-2.186 3.136-.732 1.252-1.453 2.74-2.164 4.453l-.57-.375c.796-1.937 1.593-3.564 2.379-4.892.797-1.338 1.604-2.408 2.422-3.221.819-.825 1.637-1.413 2.466-1.777a6.2 6.2 0 0 1 2.52-.546c1.27 0 2.26.342 2.96 1.027.711.685 1.077 1.638 1.077 2.869q0 1.092-.355 2.57-.355 1.46-.97 3.178a75 75 0 0 1-1.345 3.618 321 321 0 0 1-1.561 3.843c-.517 1.285-1.034 2.548-1.54 3.8a109 109 0 0 0-1.367 3.575 35 35 0 0 0-.948 3.115c-.237.953-.355 1.756-.355 2.43 0 .503.075.963.215 1.381.14.407.345.76.614 1.07.28.31.614.546.99.707.377.171.819.246 1.303.246.883 0 1.798-.267 2.757-.813.969-.557 1.938-1.306 2.907-2.259a28.5 28.5 0 0 0 2.907-3.383 41 41 0 0 0 2.713-4.185 48 48 0 0 0 2.401-4.688 52 52 0 0 0 1.895-4.85 35 35 0 0 0 1.26-4.72c.312-1.53.463-2.954.463-4.26 0-.91-.065-1.67-.194-2.302a12 12 0 0 0-.42-1.605c-.15-.429-.29-.782-.42-1.05-.129-.267-.194-.481-.194-.652 0-.182.087-.375.248-.59.172-.213.42-.31.754-.31s.613.129.818.397c.226.246.398.588.528 1.027q.21.627.29 1.445c.054.546.086 1.103.086 1.67zm2.057 19.022c0 .246-.076.46-.227.631-.139.15-.333.29-.57.396a4 4 0 0 1-.862.268c-.322.075-.656.128-1.012.193-.29.053-.646.192-1.055.395-.409.215-.796.525-1.173.964q-.565.626-.97 1.67c-.247.685-.376 1.53-.376 2.547s.14 1.916.42 2.612c.29.685.678 1.231 1.152 1.649a4.3 4.3 0 0 0 1.615.899 7 7 0 0 0 1.895.246c.732 0 1.421-.107 2.078-.31a7.7 7.7 0 0 0 1.916-.942 11.6 11.6 0 0 0 1.831-1.585c.603-.631 1.216-1.391 1.852-2.258a39 39 0 0 0 2.25-3.533 95 95 0 0 0 2.186-4.035c.71-1.413 1.41-2.837 2.078-4.282a458 458 0 0 0 2.002-4.26c.657-1.392 1.303-2.73 1.917-4.014a79 79 0 0 1 1.83-3.511c.614-1.103 1.174-1.991 1.658-2.655.506-.685.98-1.199 1.432-1.552q.695-.546 1.389-.706a5.7 5.7 0 0 1 1.518-.193c1.572 0 2.703.332 3.403 1.006s1.055 1.67 1.055 2.987c0 1.017-.172 2.226-.528 3.639a68 68 0 0 1-1.324 4.539 200 200 0 0 1-1.723 4.977 185 185 0 0 0-1.722 4.956 58 58 0 0 0-1.325 4.496c-.355 1.38-.527 2.558-.527 3.532 0 1.06.247 1.884.732 2.462.495.59 1.303.878 2.444.878a5.75 5.75 0 0 0 2.67-.653c.872-.428 1.723-1.07 2.563-1.927.85-.867 1.722-1.937 2.584-3.222a63 63 0 0 0 2.778-4.474l1.098-1.927.57.396-1.098 1.927a67 67 0 0 1-2.95 4.785c-.926 1.349-1.852 2.483-2.778 3.382q-1.389 1.365-2.842 2.024a7 7 0 0 1-3.069.685c-.872 0-1.636-.129-2.293-.397-.657-.267-1.217-.631-1.658-1.091a4.8 4.8 0 0 1-1.034-1.606 5.9 5.9 0 0 1-.334-2.012c0-.61.076-1.338.237-2.173.172-.835.388-1.745.657-2.72.28-.984.592-2.022.947-3.114.367-1.103.743-2.227 1.131-3.361h-8.85c-.517 1.07-1.056 2.13-1.605 3.179a86 86 0 0 1-1.615 3.03 60 60 0 0 1-1.615 2.782 36 36 0 0 1-1.572 2.366 20.6 20.6 0 0 1-2.035 2.43 11 11 0 0 1-2.024 1.627c-.689.428-1.389.75-2.1.942a8.5 8.5 0 0 1-2.228.289c-1.863 0-3.327-.535-4.372-1.606-1.033-1.092-1.56-2.654-1.56-4.699 0-1.102.15-2.13.44-3.093.291-.975.7-1.83 1.217-2.548a6 6 0 0 1 1.83-1.713 4.35 4.35 0 0 1 2.272-.631c.41 0 .733.075.991.214.269.139.398.407.398.792zm19.725-16.014c-.377.706-.797 1.51-1.239 2.409-.43.888-.893 1.84-1.367 2.847a339 339 0 0 1-1.497 3.136c-.506 1.07-1.022 2.162-1.55 3.265h8.732c.463-1.338.915-2.665 1.346-3.993.452-1.327.851-2.59 1.195-3.8a40 40 0 0 0 .861-3.36c.227-1.028.334-1.928.334-2.677 0-.492-.054-.888-.151-1.188q-.144-.465-.419-.707a1.17 1.17 0 0 0-.636-.353 2.7 2.7 0 0 0-.796-.107c-.463 0-.894.075-1.282.214-.377.14-.753.386-1.12.728-.366.353-.742.814-1.141 1.402a26 26 0 0 0-1.281 2.216z"/><path fill="url('#paint0_linear_457_1012')" d="M188.952 14.258c-1.996 4.366-4.919 6.88-7.185 6.078-1.726-.607-2.266-2.395-2.093-4.529l1.295-1.711c.992-1.3.259-1.387-.734-1.094.032-.098.054-.196.086-.293.097.022.194.033.324.033.453 0 .248-.412-.065-.78q.26-.732.583-1.43c.313-.694.647-1.333.992-1.929.238-.108.292-.26.259-.422 1.856-2.968 4.035-4.453 5.923-3.78 2.838 1.007 2.525 5.654.615 9.868zm-40.134 2.958c-3.183.866-6.096-3.294-7.488-7.28-1.629-4.626-1.219-8.092 1.187-8.742 2.158-.585 4.402 1.321 6.042 4.105-.313.737-.896 2.644-.086 2.644.593 0 .938-.076 1.143-.195a2 2 0 0 1-.054-.25h.087c.021.055.054.12.075.174a1 1 0 0 1-.108.065c.097.433.205.747.345.747h.065v.022c.507 1.43.799 2.773.885 3.954-.205 1.365-.54 2.762-.852 3.91a2.46 2.46 0 0 1-1.263.846zm.216-11.06c.097.183.183.367.28.562-.421-.151-.41-.368-.28-.563m40.188-2.406c-4.024-1.419-8.124 1.733-10.508 6.966-.054.119-.097.238-.151.357-.356.38-.637.715-.766.954-.809 1.495-9.505 13.736-11.933 16.812-4.229-6.153-7.552-11.45-10.961-17.105-.259-.422-1.78-2.708-3.129-4.842a14 14 0 0 0-2.201-3.911c0-.033-.011-.043-.032-.043-1.629-1.983-3.949-3.51-6.797-2.73-4.143 1.126-5.071 5.85-3.172 11.234 1.435 4.084 4.995 7.864 9.03 6.76a5.5 5.5 0 0 0 2.018-1.008l10.95 16.228-14.694 20.463a496 496 0 0 0-4.51 6.424l4.866-1.668 16.377-22.218c4.877 7.225 17.554 20.896 20.165 28.577.658-2.09 2.006-5.579-.529-10.736-1.1-2.242-13.788-20.636-15.331-22.846l10.077-13.347c.475 1.322 1.413 2.384 2.924 2.914 4.099 1.452 8.21-1.852 10.53-6.943 1.327-2.904 2.395-8.645-2.201-10.281z"/><path fill="#FEFDFA" d="M202.437 49.168c-1.566 0-2.959-.247-4.18-.73a8.3 8.3 0 0 1-3.1-2.072c-.832-.923-1.469-2.05-1.923-3.371q-.648-2.013-.648-4.574c0-.934.065-1.932.195-2.973a26 26 0 0 1 .637-3.189 28 28 0 0 1 1.707-4.842 26.3 26.3 0 0 1 2.43-4.251 25.4 25.4 0 0 1 3.035-3.521 20.4 20.4 0 0 1 3.5-2.706c1.22-.74 2.495-1.31 3.823-1.696a13.6 13.6 0 0 1 4.029-.612 9 9 0 0 1 1.966.226c.659.15 1.253.407 1.772.772.54.355.961.827 1.285 1.428.335.59.508 1.32.508 2.201 0 .784-.119 1.514-.357 2.18a6.6 6.6 0 0 1-.972 1.825 9 9 0 0 1-1.436 1.513 12 12 0 0 1-1.772 1.235l-.378-.526c1.134-.913 1.977-1.911 2.506-2.995a7.64 7.64 0 0 0 .821-3.457c0-1.203-.292-2.169-.886-2.749-.572-.569-1.426-.858-2.549-.858-1.437 0-2.895.429-4.385 1.277-1.48.837-2.895 1.997-4.256 3.478s-2.614 3.232-3.759 5.24c-1.145 1.996-2.085 4.154-2.83 6.484a35 35 0 0 0-1.102 4.423c-.248 1.438-.378 2.791-.378 4.047 0 5.186 2.344 7.784 7.021 7.784q4.002 0 7.388-2.512c2.247-1.697 4.375-4.284 6.373-7.784l1.102-1.932.572.397-1.101 1.932c-1.07 1.868-2.161 3.5-3.273 4.864-1.113 1.374-2.268 2.501-3.457 3.392q-1.799 1.337-3.758 1.997c-1.307.45-2.69.666-4.159.666zm16.407-16.941a28 28 0 0 1 1.707-4.82 28 28 0 0 1 2.452-4.241 24.3 24.3 0 0 1 3.013-3.543 20 20 0 0 1 3.457-2.684 15.6 15.6 0 0 1 3.759-1.717 13 13 0 0 1 3.921-.612c2.657 0 4.687.816 6.102 2.458 1.405 1.632 2.107 4.005 2.107 7.107 0 1.331-.13 2.727-.4 4.198a30.5 30.5 0 0 1-1.123 4.423 29 29 0 0 1-1.945 4.509 28 28 0 0 1-2.495 3.961 27 27 0 0 1-2.927 3.275 19.3 19.3 0 0 1-3.251 2.49 14.9 14.9 0 0 1-3.435 1.568 11.3 11.3 0 0 1-3.478.569q-1.96 0-3.5-.709a7.1 7.1 0 0 1-2.613-2.05c-.713-.913-1.264-2.018-1.642-3.318q-.55-1.964-.551-4.444c0-1.02.076-2.072.216-3.146.14-1.095.356-2.18.637-3.274zm7.788 15.91c1.394 0 2.808-.397 4.267-1.191 1.458-.795 2.873-1.911 4.223-3.34 1.361-1.427 2.625-3.113 3.791-5.077a37 37 0 0 0 3.035-6.485 35.5 35.5 0 0 0 1.394-4.97c.335-1.632.507-3.114.507-4.423 0-1.128-.129-2.148-.399-3.039-.249-.912-.637-1.674-1.134-2.286a4.8 4.8 0 0 0-1.815-1.428c-.713-.333-1.523-.505-2.43-.505-.972 0-1.955.193-2.949.57-1.005.375-1.987.912-2.97 1.61a19 19 0 0 0-2.852 2.512 24.3 24.3 0 0 0-2.592 3.317 32 32 0 0 0-2.258 3.962 35 35 0 0 0-1.793 4.487 36 36 0 0 0-1.101 4.51c-.249 1.47-.379 2.844-.379 4.132 0 2.491.465 4.38 1.394 5.68s2.29 1.953 4.072 1.953zm43-20.698a22 22 0 0 0 2.236-2.534 20.5 20.5 0 0 0 1.707-2.64c.475-.87.842-1.697 1.101-2.492.249-.794.378-1.524.378-2.179 0-.279-.032-.547-.086-.816a1.6 1.6 0 0 0-.313-.687 1.34 1.34 0 0 0-.594-.483c-.238-.129-.551-.193-.929-.193-.8 0-1.62.268-2.452.816-.821.547-1.599 1.33-2.366 2.372a16.4 16.4 0 0 0-1.62 2.706q-.713 1.48-1.393 3.188a88 88 0 0 0-1.329 3.543c-.432 1.235-.896 2.47-1.393 3.736a89 89 0 0 1-2.063 4.842 40 40 0 0 1-2.085 3.983 26 26 0 0 1-2.171 3.167 17.2 17.2 0 0 1-2.301 2.372c.67.194 1.426.398 2.236.612q1.248.29 2.593.548c.896.172 1.814.311 2.743.419a24 24 0 0 0 2.765.171q2.43 0 4.245-.612a10.4 10.4 0 0 0 3.316-1.846c1.005-.838 1.944-1.879 2.83-3.124.897-1.256 1.836-2.738 2.809-4.445l1.08-1.932.572.397-1.102 1.932c-1.339 2.352-2.624 4.273-3.877 5.787q-1.88 2.238-3.694 3.543c-1.199.848-2.387 1.438-3.565 1.76a13.2 13.2 0 0 1-3.521.483c-.799 0-1.663-.075-2.571-.214a33 33 0 0 1-2.786-.57 62 62 0 0 1-2.895-.772c-.983-.29-1.955-.59-2.917-.88a12.2 12.2 0 0 1-3.251 1.341 14.5 14.5 0 0 1-3.629.44q-1.328 0-2.171-.193c-.551-.107-.983-.268-1.307-.461-.324-.194-.551-.419-.67-.666a1.9 1.9 0 0 1-.173-.751c0-.505.163-.913.487-1.213a3.2 3.2 0 0 1 1.22-.71 6.4 6.4 0 0 1 1.62-.353 13 13 0 0 1 1.685-.108c1.167 0 2.269.097 3.316.29 1.059.183 2.031.387 2.906.634a15 15 0 0 0 1.285-1.761 29 29 0 0 0 1.329-2.308c.464-.88.939-1.868 1.436-2.953.497-1.105 1.016-2.33 1.577-3.671a275 275 0 0 0 2.387-5.808 97 97 0 0 1 2.085-4.864 40 40 0 0 1 2.052-3.897q1.053-1.74 2.366-2.995c.972-.934 1.987-1.632 3.035-2.072 1.059-.45 2.074-.665 3.057-.665.659 0 1.21.085 1.642.268.453.182.799.43 1.058.751.27.312.454.666.551 1.095.108.42.173.87.173 1.364 0 1.653-.529 3.317-1.577 5.014q-1.555 2.511-4.537 4.992l-.529-.655zm-24.281 20.967c1.166 0 2.182-.108 3.057-.312a6.9 6.9 0 0 0 2.451-1.148c-.464-.14-.961-.28-1.479-.42-.508-.15-1.037-.289-1.588-.396a15 15 0 0 0-1.663-.29 10.5 10.5 0 0 0-1.621-.129c-.831 0-1.479.107-1.966.333-.464.215-.702.558-.702 1.052 0 .182.044.354.13.526.097.15.27.29.529.419.26.107.605.204 1.059.268.464.075 1.058.107 1.793.107zm34.218-16.19a28 28 0 0 1 1.707-4.82 28 28 0 0 1 2.452-4.24 24.3 24.3 0 0 1 3.013-3.544 20.5 20.5 0 0 1 3.457-2.683 15.6 15.6 0 0 1 3.759-1.718 13 13 0 0 1 3.921-.612c2.657 0 4.687.816 6.092 2.458 1.404 1.632 2.106 4.005 2.106 7.107 0 1.332-.13 2.727-.4 4.198a29 29 0 0 1-1.123 4.423 29 29 0 0 1-1.944 4.51 29 29 0 0 1-2.485 3.96 27 27 0 0 1-2.927 3.275 19.3 19.3 0 0 1-3.251 2.49 14.9 14.9 0 0 1-3.435 1.568 11.3 11.3 0 0 1-3.478.57q-1.96 0-3.5-.71a7.1 7.1 0 0 1-2.613-2.05c-.713-.913-1.264-2.018-1.642-3.317q-.552-1.965-.551-4.445c0-1.02.075-2.072.216-3.145.14-1.096.356-2.18.637-3.275zm7.788 15.91c1.393 0 2.808-.397 4.267-1.191 1.458-.795 2.873-1.911 4.223-3.339 1.361-1.428 2.625-3.113 3.802-5.078a37 37 0 0 0 3.035-6.484 36 36 0 0 0 1.394-4.971c.334-1.632.507-3.113.507-4.423 0-1.127-.129-2.147-.399-3.038-.249-.913-.638-1.675-1.135-2.287a4.76 4.76 0 0 0-1.814-1.428c-.713-.333-1.523-.505-2.431-.505-.972 0-1.955.194-2.948.57-.994.375-1.988.912-2.971 1.61a19 19 0 0 0-2.851 2.512 24.3 24.3 0 0 0-2.592 3.317 32 32 0 0 0-2.258 3.962 35 35 0 0 0-1.793 4.487 36 36 0 0 0-1.102 4.51c-.248 1.47-.378 2.844-.378 4.133 0 2.49.465 4.38 1.394 5.679s2.29 1.954 4.072 1.954zm28.04 1.053c-3.877 0-5.822-2.276-5.822-6.818 0-2.029.357-4.154 1.059-6.377q1.053-3.35 3.078-6.73a33.3 33.3 0 0 1 4.666-6.12c1.761-1.815 3.63-3.35 5.617-4.617 1.998-1.267 4.083-2.243 6.243-2.909 2.182-.666 4.386-1.01 6.6-1.01 1.501 0 2.841.151 4.007.441 1.178.29 2.182.72 2.992 1.278.821.547 1.437 1.223 1.858 2.029.421.816.637 1.728.637 2.748a7.44 7.44 0 0 1-.842 3.457 9.5 9.5 0 0 1-2.258 2.899c-.961.826-2.074 1.492-3.359 2.018-1.274.504-2.646.773-4.094.816 1.761.322 3.046.848 3.856 1.567.821.73 1.221 1.696 1.221 2.91 0 .687-.108 1.417-.313 2.2a73 73 0 0 1-.713 2.416 49 49 0 0 0-.691 2.49 9.6 9.6 0 0 0-.314 2.416c0 1.235.314 2.169.929 2.834.638.655 1.534.988 2.701.988.82 0 1.577-.161 2.3-.483.713-.322 1.458-.87 2.215-1.653.777-.784 1.598-1.836 2.473-3.146.886-1.331 1.901-2.995 3.035-4.992l1.102-1.933.572.398-1.101 1.932a125 125 0 0 1-2.344 3.94c-.691 1.117-1.34 2.083-1.966 2.899-.605.816-1.177 1.481-1.728 2.018-.551.515-1.102.934-1.664 1.235a6.3 6.3 0 0 1-1.749.655 9.5 9.5 0 0 1-1.966.193q-1.443 0-2.593-.354c-.777-.237-1.436-.58-1.987-1.031a4.6 4.6 0 0 1-1.264-1.61 5.1 5.1 0 0 1-.443-2.137c0-.784.119-1.632.357-2.555.237-.923.507-1.836.799-2.748s.562-1.772.799-2.598c.238-.827.357-1.535.357-2.137q0-.612-.195-1.191a4.1 4.1 0 0 0-.529-1.074 3.6 3.6 0 0 0-.799-.816 2.26 2.26 0 0 0-.951-.44c-.054.01-.151.021-.291.021a1.2 1.2 0 0 1-.422-.064c-.097-.054-.151-.129-.151-.215 0-.075.054-.129.151-.193a.65.65 0 0 1 .378-.107c.152 0 .271.01.357.043a.7.7 0 0 1 .292.128 9.6 9.6 0 0 0 3.186-1.32 10.9 10.9 0 0 0 2.549-2.244 10.5 10.5 0 0 0 1.685-2.898 8.8 8.8 0 0 0 .637-3.275c0-2.437-1.155-3.972-3.478-4.616-.777.311-1.533.773-2.279 1.385a9.7 9.7 0 0 0-1.879 2.05c-.151.226-.303.451-.443.687-.13.236-.27.548-.443.924-.173.365-.367.826-.594 1.406a119 119 0 0 0-.842 2.136c-.325.849-.713 1.89-1.156 3.103-.432 1.202-.962 2.641-1.577 4.316q-1.62 4.46-3.37 7.762c-1.167 2.18-2.387 3.993-3.673 5.432-1.274 1.428-2.614 2.49-4.007 3.188a9.7 9.7 0 0 1-4.407 1.053zm16.008-26.614a18 18 0 0 1 3.543-4.316c1.361-1.213 2.808-2.115 4.32-2.684a13 13 0 0 0-1.058-.129 14 14 0 0 0-1.199-.043c-2.106 0-4.213.333-6.308.988a25.4 25.4 0 0 0-6.06 2.834c-1.922 1.213-3.737 2.706-5.444 4.466a33.4 33.4 0 0 0-4.515 5.894c-1.296 2.126-2.279 4.273-2.948 6.463-.659 2.169-.994 4.284-.994 6.356s.378 3.532 1.134 4.466c.778.934 1.826 1.406 3.165 1.406.734 0 1.415-.086 2.041-.247a5.9 5.9 0 0 0 1.837-.88c.594-.419 1.166-.966 1.728-1.632.561-.666 1.134-1.492 1.706-2.47a41 41 0 0 0 1.772-3.478 125 125 0 0 0 1.987-4.616c.638-1.589 1.178-2.963 1.642-4.112.475-1.16.886-2.158 1.221-2.974.334-.837.615-1.535.842-2.072.238-.547.454-1.009.637-1.384.184-.387.346-.72.486-.988.141-.28.292-.548.443-.816zm53.898-7.59a6.3 6.3 0 0 0-1.393.569 9 9 0 0 0-1.307.88 8.5 8.5 0 0 0-1.177 1.073c-.357.376-.659.752-.929 1.128a10 10 0 0 0-.508.837c-.173.29-.356.666-.551 1.117-.194.429-.421.966-.669 1.588a91 91 0 0 0-.886 2.266c-.324.88-.713 1.921-1.156 3.124-.432 1.202-.94 2.598-1.523 4.198-1.123 3.07-2.268 5.71-3.435 7.901-1.166 2.19-2.408 3.994-3.715 5.41-1.307 1.396-2.722 2.438-4.245 3.103-1.502.655-3.154.988-4.958.988-2.43 0-4.277-.537-5.552-1.61-1.253-1.095-1.879-2.577-1.879-4.466 0-.709.086-1.385.248-2.019.173-.633.389-1.18.67-1.653q.422-.708.972-1.127c.378-.28.778-.419 1.177-.419.368 0 .659.097.864.29.216.193.314.472.314.837 0 .28-.076.516-.216.709-.13.193-.292.365-.508.505a3.5 3.5 0 0 1-.659.332 8 8 0 0 1-.691.247c-.454.15-.767.43-.951.838-.173.386-.248.901-.248 1.535 0 .794.129 1.514.399 2.158.281.633.681 1.17 1.199 1.632.519.45 1.156.794 1.901 1.052q1.118.354 2.528.354c.94 0 1.75-.086 2.506-.247a7.2 7.2 0 0 0 2.106-.837 8.8 8.8 0 0 0 1.88-1.59c.594-.665 1.177-1.502 1.749-2.49.594-.988 1.188-2.169 1.793-3.521a128 128 0 0 0 1.988-4.735 337 337 0 0 1 1.501-3.8c.432-1.095.821-2.05 1.156-2.899.335-.837.637-1.567.886-2.18.27-.633.507-1.18.713-1.652.226-.473.432-.892.637-1.256.194-.366.399-.72.615-1.074a20.5 20.5 0 0 1 2.28-3.081 15.8 15.8 0 0 1 2.916-2.534 23 23 0 0 1-2.927.687c-.983.172-1.869.247-2.657.247-.746 0-1.491-.075-2.236-.215-.735-.14-1.437-.29-2.128-.461a95 95 0 0 0-1.901-.462c-.594-.14-1.102-.215-1.545-.215-.529 0-1.047.119-1.544.355a3.7 3.7 0 0 0-1.264.987 4.5 4.5 0 0 0-.864 1.536c-.216.59-.313 1.245-.313 1.975 0 .837.14 1.557.421 2.136l-.735.42a4.9 4.9 0 0 1-.421-1.118 6.3 6.3 0 0 1-.151-1.427q0-1.466.551-2.641a5.8 5.8 0 0 1 1.523-1.997 7 7 0 0 1 2.3-1.256 9.2 9.2 0 0 1 2.895-.44c.508 0 .94.032 1.307.107.378.054.735.129 1.08.225.335.097.681.204 1.037.312q.551.144 1.264.29c.475.096 1.037.182 1.685.247.648.053 1.437.085 2.365.085a17.181 17.181 0 0 0 3.338-.311c.497-.107.983-.247 1.48-.397.497-.172 1.026-.354 1.598-.548v.398m22.262 9.662c.529-.795.929-1.546 1.177-2.244a6.4 6.4 0 0 0 .378-2.137c0-.719-.129-1.427-.378-2.029a4.3 4.3 0 0 0-1.058-1.556 4.7 4.7 0 0 0-1.707-.988q-.988-.354-2.236-.354c-.983 0-1.879.16-2.7.483a5.9 5.9 0 0 0-2.063 1.363 6.2 6.2 0 0 0-1.307 2.115c-.313.827-.465 1.74-.465 2.749s.141 1.996.422 2.952.637 1.9 1.058 2.856a44 44 0 0 0 1.372 2.791q.762 1.384 1.393 2.77c.422.923.778 1.857 1.059 2.791s.421 1.89.421 2.856-.151 1.91-.464 2.813a9 9 0 0 1-1.307 2.437 10.5 10.5 0 0 1-1.966 2.018 12.5 12.5 0 0 1-2.484 1.535c-.886.419-1.826.74-2.83.966-.994.226-2.009.333-3.036.333-1.566 0-2.927-.247-4.115-.73s-2.171-1.138-2.97-1.954a8.2 8.2 0 0 1-1.815-2.791 9.5 9.5 0 0 1-.594-3.296c0-.709.076-1.396.227-2.05a7 7 0 0 1 .637-1.74q.422-.756.972-1.191c.378-.29.789-.44 1.221-.44.378 0 .67.107.886.31.226.216.334.495.334.86 0 .29-.075.537-.226.73a1.9 1.9 0 0 1-.53.461 4 4 0 0 1-.669.312 17 17 0 0 0-.638.247c-.367.171-.669.45-.929.858-.237.408-.356 1.031-.356 1.89s.162 1.75.486 2.641a7.4 7.4 0 0 0 1.48 2.437c.67.73 1.523 1.32 2.549 1.782 1.026.451 2.247.666 3.651.666 1.22 0 2.376-.183 3.456-.548a8.6 8.6 0 0 0 2.873-1.632c.832-.73 1.48-1.632 1.966-2.705.475-1.095.713-2.351.713-3.779 0-1.074-.129-2.072-.4-2.974a15 15 0 0 0-.972-2.598 24 24 0 0 0-1.263-2.394 34 34 0 0 1-1.264-2.394 21 21 0 0 1-.972-2.512 10.5 10.5 0 0 1-.378-2.877c0-1.31.226-2.523.669-3.629a8.6 8.6 0 0 1 1.966-2.899c.843-.816 1.858-1.438 3.035-1.89 1.199-.46 2.528-.686 3.986-.686 1.059 0 2.009.129 2.852.376.853.236 1.577.59 2.171 1.052a4.55 4.55 0 0 1 1.371 1.674q.486.983.486 2.223c0 .912-.194 1.771-.594 2.576-.388.795-1.015 1.61-1.857 2.437l-.713-.332zm27.576-1.868q.745-1.32 1.749-2.512a18 18 0 0 1 2.215-2.201 42 42 0 0 1-3.694-.483c-1.21-.226-2.409-.44-3.608-.655a84 84 0 0 0-3.5-.548 26 26 0 0 0-3.391-.225c-1.253 0-2.312.107-3.165.333-.853.225-1.566.536-2.106.944-.529.387-.918.87-1.156 1.428q-.356.837-.356 1.868c0 .687.108 1.278.313 1.782q.324.758.907 1.256c.389.322.853.57 1.394.73q.825.225 1.814.226c.454 0 .918-.032 1.415-.107.497-.076.972-.172 1.458-.29.497-.14.972-.3 1.437-.484a9.5 9.5 0 0 0 1.285-.611l.421.504a13 13 0 0 1-2.991 1.235c-1.07.29-2.085.44-3.057.44-.821 0-1.545-.107-2.193-.311a4.9 4.9 0 0 1-1.663-.945 3.95 3.95 0 0 1-1.037-1.492q-.357-.885-.357-1.997c0-1.976.832-3.479 2.485-4.53 1.674-1.053 4.082-1.568 7.236-1.568 1.264 0 2.506.075 3.716.225 1.221.15 2.441.333 3.651.526 1.22.183 2.452.355 3.694.526s2.506.269 3.824.312a17.5 17.5 0 0 1 3.499-1.514 12.2 12.2 0 0 1 3.565-.547c.605 0 1.015.053 1.22.171.227.108.335.322.335.634 0 .461-.216.89-.659 1.299q-.648.58-1.814 1.03c-.756.29-1.664.526-2.722.687-1.059.172-2.193.247-3.414.247h-.594c-.194 0-.388 0-.594-.021a10 10 0 0 0-.551.59 9 9 0 0 0-.442.612c-.13.183-.249.398-.378.655-.13.236-.27.548-.443.945a27 27 0 0 0-.594 1.428 108 108 0 0 0-.821 2.158c-.314.848-.681 1.868-1.124 3.06q-.648 1.755-1.523 4.154c-1.123 3.06-2.268 5.7-3.434 7.902q-1.734 3.285-3.694 5.41c-1.307 1.396-2.712 2.437-4.224 3.103-1.501.655-3.165.988-4.979.988-2.387 0-4.234-.526-5.53-1.568-1.275-1.052-1.923-2.555-1.923-4.509 0-.708.086-1.385.248-2.018.173-.633.389-1.181.67-1.653q.422-.71.972-1.128.567-.418 1.199-.418c.367 0 .648.107.843.333.216.214.313.515.313.923 0 .193-.033.365-.108.504a.85.85 0 0 1-.313.376 4.6 4.6 0 0 1-.638.354c-.27.13-.605.269-1.015.44q-.616.274-.907.773c-.195.323-.292.838-.292 1.557 0 1.718.519 3.017 1.566 3.897 1.037.87 2.614 1.3 4.731 1.3.854 0 1.642-.076 2.366-.215a6.4 6.4 0 0 0 2.009-.752c.637-.376 1.231-.891 1.793-1.535.572-.644 1.155-1.46 1.728-2.459.594-.987 1.199-2.179 1.815-3.564.637-1.385 1.317-3.017 2.063-4.885.615-1.578 1.155-2.941 1.598-4.09.465-1.149.854-2.126 1.178-2.93.334-.828.615-1.515.842-2.051.227-.548.411-1.01.573-1.385.172-.376.313-.687.442-.945.13-.258.26-.494.4-.73zm13.674-8.074c-.886 0-1.782.13-2.7.398s-1.793.622-2.636 1.073a39 39 0 0 0 2.323-.15 32 32 0 0 0 2.03-.29 9 9 0 0 0 1.415-.354c.357-.14.529-.28.529-.419 0-.172-.313-.247-.95-.247z"/></g><defs><linearGradient id="paint0_linear_457_1012" x1="165.595" x2="165.595" y1=".002" y2="65" gradientUnits="userSpaceOnUse"><stop stop-color="#C08D58"/><stop offset="1" stop-color="#FEF1BA"/></linearGradient><clipPath id="clip0_457_1012"><path fill="#fff" d="M.5 0h450v65H.5z"/></clipPath></defs></svg>