<svg xmlns="http://www.w3.org/2000/svg" width="32" height="32" fill="none"><path stroke="#FDFFFE" stroke-linecap="round" stroke-linejoin="round" stroke-width="2" d="M30 23.215v4.064a2.705 2.705 0 0 1-1.846 2.578 2.7 2.7 0 0 1-1.114.132 26.9 26.9 0 0 1-11.716-4.16A26.45 26.45 0 0 1 7.179 17.7 26.8 26.8 0 0 1 3.01 5.954 2.705 2.705 0 0 1 4.618 3.23a2.7 2.7 0 0 1 1.095-.23h4.072A2.708 2.708 0 0 1 12.5 5.33c.172 1.3.491 2.577.95 3.807a2.7 2.7 0 0 1-.61 2.858l-1.724 1.721a21.7 21.7 0 0 0 8.145 8.13l1.724-1.721a2.72 2.72 0 0 1 2.864-.61c1.232.459 2.512.777 3.815.948.66.093 1.262.425 1.692.932s.66 1.154.643 1.819"/></svg>