<svg xmlns="http://www.w3.org/2000/svg" width="17" height="17" fill="none"><g clip-path="url('#clip0_70_60')"><path fill="url('#paint0_linear_70_60')" d="M9.033 13.23s.913-.016 1.719-2.02c.239-.594.31-1.15-.035-1.207-.694-.112-.788 2.747-3.023 2.12-1.578.174-.16.682-.047.714.112.033.858.663.858.663z"/><path fill="url('#paint1_linear_70_60')" d="M7.656 12.186s.945-.076 1.664-2.19c.213-.628.184-.96-.176-.995-.725-.069-.586 2.633-2.94 2.137-1.624.286-.125.712-.006.738.118.026.927.624.927.624z"/><path fill="url('#paint2_linear_70_60')" d="M10.309 13.468s.604.227 1.305-.736c.372-.512.468-1.099.137-1.213-.665-.231-1.323 1.762-2.897 1.669-1.575-.095-.627.59-.52.643.105.052 1.307.169 1.307.169l.668-.53z"/><path fill="url('#paint3_linear_70_60')" d="M7.912 12.082s.196.68 1.269 1.031c1.07.351 1.92-.668 2.54-.464.621.203-.049 1.34-1.463 1.73-1.415.391-3.277-.212-4.43-1.193-1.008-.857-2.215-.993-1.995.155-.659.205-.88-.958-.88-1.012v-.78L3.902 11l1.355.23 1.714.615.941.236z"/><path fill="url('#paint4_linear_70_60')" d="M7.916 12.22c.03-.038.094-.072.203-.09.316-.055 1.055-.139 1.256-.397.15-.195.128-.535-.457-.694-.585-.16-1.511-.037-1.874-.242-.27-.154-.95-.645-1.555-.98-.205-.113-.796-.58-1.752-.35-1.255.178-1.638-.269-1.646-.967l-.637 1.281.414 1.84s.849.545 1 .975c.303-.023.683.847.915.904-.38-1.11.24-1.89 1.591-1.517 2.134.588 2.542.239 2.542.239z"/><path fill="url('#paint5_linear_70_60')" d="M7.874 4.232s-.913.013-1.718 1.73c-.24.51-.311.987.034 1.035.694.097.788-2.354 3.024-1.816 1.578-.15.158-.585.046-.613S8.402 4 8.402 4z"/><path fill="url('#paint6_linear_70_60')" d="M9.751 5.269s-.945.066-1.664 1.878c-.213.538-.183.822.176.852.725.06.587-2.256 2.94-1.832 1.624-.245.125-.61.007-.632-.119-.022-.927-.535-.927-.535z"/><path fill="url('#paint7_linear_70_60')" d="M6.599 3.925s-.605-.18-1.306.59c-.372.409-.468.878-.137.97.665.185 1.323-1.41 2.898-1.335 1.574.075.626-.473.52-.515-.106-.041-1.308-.135-1.308-.135z"/><path fill="url('#paint8_linear_70_60')" d="M8.995 5.073s-.196-.584-1.269-.884c-1.07-.301-1.92.572-2.54.398-.62-.175.049-1.15 1.463-1.484s3.277.182 4.43 1.023c1.008.735 2.215.852 1.995-.133-.22-.984.88.822.88.868v.668L13.006 6l-1.355-.197-1.714-.528z"/><path fill="url('#paint9_linear_70_60')" d="M8.991 5.233c-.03.037-.094.07-.202.088-.317.052-1.056.133-1.257.382-.15.188-.128.515.457.669s1.511.035 1.875.233c.27.148.949.62 1.554.943.205.11.796.56 1.752.339 1.256-.172 1.725.275 1.646.931.13.787.638-1.234.638-1.234l-.415-1.774s-.848-.524-1-.939c-.303.022-.683-.816-.915-.871.38 1.069-.24 1.82-1.59 1.462-2.135-.567-2.543-.23-2.543-.23"/><path fill="url('#paint10_linear_70_60')" d="M7.954 16.499c0-.798-.524-1.507-1.296-1.735-2.722-.803-4.706-3.304-4.706-6.264s1.984-5.461 4.706-6.265A1.81 1.81 0 0 0 7.954.5c-4.192.3-7.5 3.765-7.5 8s3.308 7.7 7.5 8z"/><path fill="url('#paint11_linear_70_60')" d="M8.954.5c0 .798.523 1.508 1.295 1.735 2.722.803 4.707 3.304 4.707 6.265s-1.985 5.462-4.707 6.265A1.81 1.81 0 0 0 8.954 16.5c4.192-.3 7.5-3.766 7.5-8.001S13.146.799 8.954.5"/></g><defs><linearGradient id="paint0_linear_70_60" x1="9.206" x2="8.642" y1="10.057" y2="12.679" gradientUnits="userSpaceOnUse"><stop stop-color="#F5CB00"/><stop offset="1" stop-color="#DA344B"/></linearGradient><linearGradient id="paint1_linear_70_60" x1="7.619" x2="7.243" y1="9.14" y2="11.705" gradientUnits="userSpaceOnUse"><stop stop-color="#F5CB00"/><stop offset="1" stop-color="#DA344B"/></linearGradient><linearGradient id="paint2_linear_70_60" x1="10.409" x2="9.522" y1="11.326" y2="13.519" gradientUnits="userSpaceOnUse"><stop stop-color="#F5CB00"/><stop offset="1" stop-color="#DA344B"/></linearGradient><linearGradient id="paint3_linear_70_60" x1="5.36" x2="11.672" y1="11.992" y2="14.356" gradientUnits="userSpaceOnUse"><stop stop-color="#DA344B"/><stop offset="1" stop-color="#F5CB00"/></linearGradient><linearGradient id="paint4_linear_70_60" x1="1.454" x2="9.454" y1="10.999" y2="10.999" gradientUnits="userSpaceOnUse"><stop stop-color="#DA344B"/><stop offset="1" stop-color="#F5CB00"/></linearGradient><linearGradient id="paint5_linear_70_60" x1="7.7" x2="8.119" y1="6.952" y2="4.677" gradientUnits="userSpaceOnUse"><stop stop-color="#00F2FE"/><stop offset="1" stop-color="#534DDB"/></linearGradient><linearGradient id="paint6_linear_70_60" x1="9.788" x2="10.066" y1="7.881" y2="5.669" gradientUnits="userSpaceOnUse"><stop stop-color="#00F2FE"/><stop offset="1" stop-color="#534DDB"/></linearGradient><linearGradient id="paint7_linear_70_60" x1="6.5" x2="7.098" y1="5.639" y2="3.791" gradientUnits="userSpaceOnUse"><stop stop-color="#00F2FE"/><stop offset="1" stop-color="#534DDB"/></linearGradient><linearGradient id="paint8_linear_70_60" x1="11.583" x2="5.539" y1="5.067" y2="2.427" gradientUnits="userSpaceOnUse"><stop stop-color="#534DDB"/><stop offset="1" stop-color="#00F2FE"/></linearGradient><linearGradient id="paint9_linear_70_60" x1="15.454" x2="7.454" y1="6.501" y2="6.501" gradientUnits="userSpaceOnUse"><stop stop-color="#534DDB"/><stop offset="1" stop-color="#00F2FE"/></linearGradient><linearGradient id="paint10_linear_70_60" x1="3.125" x2="7.419" y1="1.241" y2="16.669" gradientUnits="userSpaceOnUse"><stop stop-color="#F5CB00"/><stop offset="1" stop-color="#DA344B"/></linearGradient><linearGradient id="paint11_linear_70_60" x1="9.316" x2="13.611" y1="-.034" y2="15.394" gradientUnits="userSpaceOnUse"><stop stop-color="#00F2FE"/><stop offset="1" stop-color="#534DDB"/></linearGradient><clipPath id="clip0_70_60"><path fill="#fff" d="M.454.5h16v16h-16z"/></clipPath></defs></svg>