<svg width="41" height="40" fill="none" xmlns="http://www.w3.org/2000/svg"><g clip-path="url('#clip0_192_11481')"><path d="M20.712 0a20.006 20.006 0 0 0-20 20 20.006 20.006 0 0 0 20 20 20.006 20.006 0 0 0 20-20 20.006 20.006 0 0 0-20-20Z" fill="url('#paint0_linear_192_11481')"/><path d="M9.766 19.79c5.83-2.54 9.718-4.215 11.662-5.025 5.556-2.31 6.71-2.711 7.463-2.725.165-.002.534.038.775.233.2.164.256.386.284.542.025.155.06.51.031.787-.3 3.162-1.603 10.837-2.265 14.379-.279 1.499-.832 2.001-1.366 2.05-1.163.107-2.044-.767-3.169-1.504-1.76-1.155-2.753-1.873-4.462-2.999-1.975-1.3-.694-2.016.43-3.185.295-.306 5.413-4.96 5.51-5.383.013-.053.025-.25-.093-.353-.116-.104-.288-.069-.413-.04-.178.04-2.987 1.898-8.437 5.575-.797.549-1.52.816-2.17.802-.712-.016-2.087-.404-3.109-.736-1.25-.407-2.246-.622-2.159-1.314.044-.36.54-.728 1.488-1.105Z" fill="#fff"/></g><defs><linearGradient id="paint0_linear_192_11481" x1="2000.71" y1="0" x2="2000.71" y2="4000" gradientUnits="userSpaceOnUse"><stop stop-color="#2AABEE"/><stop offset="1" stop-color="#229ED9"/></linearGradient><clipPath id="clip0_192_11481"><path fill="#fff" transform="translate(.712)" d="M0 0h40v40H0z"/></clipPath></defs></svg>