<svg xmlns="http://www.w3.org/2000/svg" width="132" height="128" fill="none"><g clip-path="url('#clip0_91_34348')"><path fill="url('#paint0_linear_91_34348')" d="M120.085 38.447a6 6 0 0 0-3.438-3.915c-3.266-1.384-9.3-3.532-15.202-3.532-8.702 0-31.642 5.547-36.418 5.547-4.777 0-17.687 1.363-17.687 1.363S34.055 33.334 33 33.241v24.78s14.573-4.577 16.389-4.824c1.815-.248 28.386 2.923 36.134 4.09 7.738 1.167 9.32 3.8 9.036 5.846-.284 2.045-1.288 17.817 1.866 28.332 3.154 10.514 6.358 19.377 7.504 21.711s3.915-.971 3.915-1.56-3.063-3.605-2.576-15.09c.477-11.486 1.339-27.361-.953-33.59-1.674-4.534 6.937-6.744 11.744-7.612a5.32 5.32 0 0 0 4.218-3.997c.721-3.016 1.258-7.674-.192-12.87z"/><path fill="url('#paint1_linear_91_34348')" d="M94.33 63.01H96V66h-1.67c-.737 0-1.33-.513-1.33-1.149v-.702c0-.636.593-1.149 1.33-1.149z"/><path fill="url('#paint2_linear_91_34348')" d="M94.33 69.01H96V76h-1.67A1.32 1.32 0 0 1 93 74.685v-4.37A1.32 1.32 0 0 1 94.33 69z"/><path fill="url('#paint3_linear_91_34348')" d="M95.33 79.01H97V84h-1.67c-.737 0-1.33-.535-1.33-1.198v-2.604c0-.663.593-1.198 1.33-1.198z"/><path fill="#352D25" d="m7.517 64.77 5.947-8.303c.071-.093.061-.217-.01-.27-.07-.051-.192-.02-.253.073l-5.927 8.283-.304-.311c.01 0 .02-.021.03-.032l5.147-7.193c.071-.094.061-.218-.01-.27s-.192-.02-.253.073l-5.127 7.163c-.121-.156-.223-.332-.324-.508l5.714-7.992c.071-.094.061-.218-.01-.27s-.192-.02-.253.073L6.27 63.132s0-.02-.01-.02a4 4 0 0 1-.253-.736l4.64-6.49c.07-.093.06-.217-.01-.269-.071-.052-.193-.02-.254.073l-4.447 6.209c-.03-.487.06-.985.385-1.43l4.154-5.805c.152-.208.131-.477-.03-.602-.133-.103-.325-.072-.477.052C8.307 55.576-.892 63.817.07 66.222c.983 2.436 39.605 29.915 45.32 33.968.394.28.982.114 1.327-.363l-.233.322.942.705c.243.186.587.134.86-.083l-.05.062 35.44 26.536s3.132 1.804 3.324 1.617l-38.358-28.723-.051.062c.121-.332.06-.684-.183-.86l-.942-.705c.335-.477.325-1.089-.04-1.39-1.155-.974-3.182-3.513-1.358-8.479 2.097-5.711 2.665-6.074 1.925-6.706-.253-.207-.658-.114-.892.218l-2.39 3.348q-.333.465-.74.84l2.675-3.743c.07-.093.06-.217-.01-.27-.071-.051-.193-.02-.254.073l-3.313 4.623a5 5 0 0 1-1.013.457l4.58-6.406c.07-.094.06-.218-.01-.27-.072-.052-.193-.02-.254.072l-4.823 6.738a5 5 0 0 1-.567.063l4.336-6.054c.071-.093.061-.218-.01-.27s-.192-.02-.253.073l-4.468 6.25a3.4 3.4 0 0 1-.568-.093c-.01 0-.03 0-.04-.01l5.35-7.474c.07-.093.06-.218-.01-.27-.072-.051-.193-.02-.254.073l-5.42 7.578a7 7 0 0 1-.426-.135l4.803-6.707c.07-.093.06-.218-.01-.27-.072-.051-.193-.02-.254.073l-4.863 6.8c-.172-.062-.355-.124-.537-.197l5.664-7.92c.07-.093.06-.217-.01-.269-.072-.052-.193-.02-.254.073l-5.714 7.992c-.132-.052-.264-.114-.395-.176l5.066-7.08c.07-.094.06-.218-.01-.27-.072-.052-.193-.02-.254.073l-5.106 7.131c-.162-.083-.335-.165-.497-.259l5.867-8.199c.07-.093.06-.218-.01-.27-.072-.051-.193-.02-.254.073l-5.897 8.23a8 8 0 0 1-.385-.228.24.24 0 0 0 .071-.072l5.147-7.194c.071-.093.061-.218-.01-.27-.07-.051-.192-.02-.253.073l-5.147 7.194s-.04.072-.04.114c-.163-.104-.325-.218-.487-.332l5.947-8.313c.071-.094.061-.218-.01-.27s-.192-.02-.253.073l-5.947 8.313-.375-.28s.091-.041.132-.093l5.146-7.194c.071-.093.061-.217-.01-.27-.07-.051-.192-.02-.253.073l-5.147 7.194s-.05.104-.05.156l-.487-.363 5.947-8.314c.071-.093.061-.217-.01-.27-.07-.05-.192-.02-.253.074l-5.947 8.313-.375-.28s.091-.041.132-.093l5.146-7.194c.071-.094.061-.218-.01-.27-.07-.051-.192-.02-.253.073l-5.147 7.194s-.05.103-.05.155l-.487-.363 5.947-8.313c.071-.093.061-.218-.01-.27-.07-.051-.192-.02-.253.073l-5.947 8.314-.375-.28s.091-.042.132-.094l5.147-7.193c.07-.094.06-.218-.01-.27-.072-.052-.193-.02-.254.072l-5.147 7.194s-.05.104-.05.156l-.487-.363 5.948-8.313c.07-.094.06-.218-.01-.27-.072-.052-.193-.02-.254.073l-5.947 8.313-.375-.28s.091-.041.132-.093l5.147-7.194c.07-.093.06-.218-.01-.27-.072-.051-.193-.02-.254.073L30.76 82.02s-.05.104-.05.155l-.487-.362 5.947-8.314c.071-.093.061-.217-.01-.27-.07-.051-.192-.02-.253.073l-5.947 8.314-.375-.28s.091-.042.132-.093l5.146-7.194c.071-.094.061-.218-.01-.27s-.192-.02-.253.073l-5.147 7.194s-.05.103-.05.155l-.487-.363 5.947-8.313c.071-.093.061-.218-.01-.27-.07-.051-.192-.02-.253.073l-5.947 8.313-.375-.28s.091-.041.132-.093l5.147-7.194c.07-.093.06-.217-.01-.27-.072-.051-.193-.02-.254.073l-5.147 7.194s-.05.104-.05.156l-.487-.363 5.948-8.314c.07-.093.06-.217-.01-.269-.072-.052-.193-.02-.254.073l-5.947 8.313-.375-.28s.091-.041.132-.093l5.147-7.194c.07-.093.06-.218-.01-.27-.072-.051-.193-.02-.254.073l-5.147 7.194s-.05.103-.05.155l-.487-.363 5.948-8.313c.07-.093.06-.218-.01-.27-.072-.051-.193-.02-.254.073l-5.947 8.314-.375-.28s.091-.042.132-.094l5.147-7.193c.07-.094.06-.218-.01-.27-.072-.052-.193-.02-.254.073l-5.147 7.193s-.05.104-.05.156l-.487-.363 5.948-8.313c.07-.094.06-.218-.01-.27-.072-.052-.193-.02-.254.073l-5.947 8.313-.375-.28s.091-.041.132-.093l5.147-7.194c.07-.093.06-.218-.01-.27-.072-.051-.193-.02-.254.073l-5.147 7.194s-.05.104-.05.155l-.487-.362 5.948-8.314c.07-.093.06-.217-.01-.27-.072-.051-.193-.02-.254.073l-5.947 8.314-.375-.28s.091-.042.132-.093l5.147-7.194c.07-.094.06-.218-.01-.27-.072-.052-.193-.02-.254.073l-5.147 7.194s-.05.103-.05.155l-.487-.363 5.948-8.313c.07-.093.06-.218-.01-.27-.072-.051-.193-.02-.254.073l-5.947 8.313-.375-.28s.091-.04.132-.093l5.147-7.194c.07-.093.06-.217-.01-.27-.072-.051-.193-.02-.254.073l-5.147 7.194s-.05.104-.05.156l-.487-.363 5.948-8.313c.07-.094.06-.218-.01-.27-.072-.052-.193-.02-.254.073l-5.947 8.313-.375-.28s.091-.041.132-.093l5.147-7.194c.07-.093.06-.218-.01-.27-.071-.051-.193-.02-.254.073l-5.147 7.194s-.05.104-.05.155l-.487-.362 5.948-8.314c.07-.093.06-.218-.01-.27-.071-.051-.193-.02-.254.073l-5.947 8.314-.375-.28s.091-.042.132-.094l5.147-7.193c.07-.094.06-.218-.01-.27-.071-.052-.193-.02-.254.073l-5.147 7.194s-.05.103-.05.155l-.487-.363 5.948-8.313c.07-.094.06-.218-.01-.27-.071-.052-.193-.02-.254.073l-5.947 8.313-.375-.28s.091-.041.132-.093l5.147-7.194c.07-.093.06-.218-.01-.27-.071-.051-.193-.02-.254.073l-5.147 7.194s-.05.104-.05.156l-.487-.363 5.948-8.314c.07-.093.06-.217-.01-.27-.071-.05-.193-.02-.254.073l-5.947 8.314-.375-.28s.091-.041.132-.093l5.147-7.194c.07-.094.06-.218-.01-.27-.071-.052-.193-.02-.254.073L16.382 71.3s-.05.103-.05.155l-.487-.363 5.948-8.313c.07-.093.06-.218-.01-.27-.071-.051-.193-.02-.254.073l-5.947 8.314-.375-.28s.091-.042.132-.094l5.147-7.194c.07-.093.06-.217-.01-.27-.071-.05-.193-.02-.254.074l-5.147 7.193s-.05.104-.05.156l-.487-.363 5.948-8.313c.07-.094.06-.218-.01-.27-.071-.052-.193-.02-.254.073l-5.947 8.313-.375-.28s.091-.041.132-.093l5.147-7.194c.07-.093.06-.218-.01-.27-.071-.051-.193-.02-.254.073l-5.147 7.194s-.05.104-.05.155l-.487-.362 5.948-8.314c.07-.093.06-.217-.01-.27-.071-.051-.193-.02-.254.073l-5.947 8.314-.375-.28s.091-.042.132-.094l5.147-7.193c.07-.094.06-.218-.01-.27-.071-.052-.193-.02-.254.073l-5.147 7.194s-.05.103-.05.155l-.487-.363 5.948-8.313c.07-.093.06-.218-.01-.27-.071-.052-.193-.02-.254.073l-5.947 8.313-.375-.28s.091-.041.132-.093l5.147-7.194c.07-.093.06-.217-.01-.27-.071-.051-.193-.02-.254.073l-5.147 7.194s-.05.104-.05.156l-.487-.363 5.948-8.313c.07-.094.06-.218-.01-.27-.071-.052-.193-.02-.254.073l-5.947 8.313-.375-.28s.091-.041.132-.093l5.147-7.194c.07-.093.06-.218-.01-.27-.071-.051-.193-.02-.254.073l-5.147 7.194s-.05.103-.05.155l-.487-.362 5.948-8.314c.07-.093.06-.218-.01-.27-.071-.051-.193-.02-.254.073l-5.947 8.314-.375-.28s.091-.042.132-.094l5.147-7.193c.07-.094.06-.218-.01-.27-.071-.052-.193-.02-.254.073L8.54 65.454s-.05.104-.05.156l-.324-.239a2 2 0 0 0-.163-.124zM57.655 73l-.943-2.84L54 69.665l2.605-.9.74-2.766.686 2.648 2.969.697-2.852.707zM84.655 119l-.943-2.841-2.712-.504 2.594-.9.74-2.755.697 2.648 2.969.697-2.862.696zM28.655 105l-.943-2.841-2.712-.504 2.594-.9.74-2.755.697 2.648 2.969.697-2.862.707zM50.228 32l-1.355-4.06L45 27.221l3.71-1.283L49.774 22l.99 3.778 4.237.99-4.075 1.01zM120.232 84l-1.353-4.05-3.879-.718 3.717-1.293L119.778 74l.99 3.778 4.232 1-4.071 1.01zM63.57 100l-.403-1.215-1.167-.22 1.113-.382.316-1.183.295 1.128 1.276.306-1.222.296zM91.093 36l-.545-1.624L89 34.093l1.493-.524.414-1.569.404 1.504 1.689.403-1.624.404zM82.57 80l-.403-1.222L81 78.571l1.113-.393.316-1.178.305 1.135 1.266.294-1.222.305z"/></g><defs><linearGradient id="paint0_linear_91_34348" x1="77" x2="77" y1="31" y2="114" gradientUnits="userSpaceOnUse"><stop stop-color="#C08D58"/><stop offset="1" stop-color="#FEF1BA"/></linearGradient><linearGradient id="paint1_linear_91_34348" x1="94.5" x2="94.5" y1="63" y2="66" gradientUnits="userSpaceOnUse"><stop stop-color="#C08D58"/><stop offset="1" stop-color="#FEF1BA"/></linearGradient><linearGradient id="paint2_linear_91_34348" x1="94.5" x2="94.5" y1="69" y2="76" gradientUnits="userSpaceOnUse"><stop stop-color="#C08D58"/><stop offset="1" stop-color="#FEF1BA"/></linearGradient><linearGradient id="paint3_linear_91_34348" x1="95.5" x2="95.5" y1="79" y2="84" gradientUnits="userSpaceOnUse"><stop stop-color="#C08D58"/><stop offset="1" stop-color="#FEF1BA"/></linearGradient><clipPath id="clip0_91_34348"><path fill="#fff" d="M0 0h132v128H0z"/></clipPath></defs></svg>