<svg width="132" height="128" fill="none" xmlns="http://www.w3.org/2000/svg"><path fill-rule="evenodd" clip-rule="evenodd" d="M86.372 28.395C70.212 43.79 75.638 49.417 73.67 68.18c-2.201 20.954-22.141 5.372-29.709 25.226-5.447 14.288 7.99 23.144 19.286 22.852 19.438-.496 16.985-24.204.624-15.367-5.719 3.085 2.03-9.178 12-7.232 10.19 1.986 14.683 9.519 12.653 16.565-2.573 8.905-10.241 13.84-19.538 16.029-6.05 1.421-11.819 1.937-17.246 1.684-70.995-8.117-65.266-109.655-5.126-115.534 28.332-2.774 46.684 9.402 39.76 16v-.01Z" fill="#352D25"/><path fill-rule="evenodd" clip-rule="evenodd" d="M91.529 90.742c5.58 1.257 8.906-1.17 8.685-5.343l-.42-8.16c2.394-3.694 2.634-2.602-.421-5.956 0 0 2.133-.926 3.406-2.534 1.272-1.618-2.264-4.3-1.803-5.001.46-.692 6.781-4.699 4.548-5.196-2.234-.497-11.17-8.637-12.643-12.946-2.554-7.458-4.107-13.365-6.39-17.606-16.41 15.071-10.67 21.047-12.633 39.832-2.194 20.99-22.069 5.382-29.612 25.269-5.35 14.096 7.583 22.918 18.733 22.899-15.427-15.646-6.201-33.067 28.55-25.258Z" fill="url('#paint0_linear_91_34365')"/><path fill-rule="evenodd" clip-rule="evenodd" d="M78.995 36.709c-4.796 15.077-2.64 14.998-3.597 28.99-.887 13.074-9.16 17.1-19.68 22.005-18.328 8.53-11.124 29.743 12.747 26.86l4.02-.527-3.456 2.335c-10.65 5.13-26.934-.88-29.422-13.064-2.187-10.67 6.106-19.59 15.93-23.284 17.684-6.645 13.18-13.64 16.203-28.776 1.612-8.08 2.076-8.588 7.255-14.53v-.009Z" fill="#fff"/><defs><linearGradient id="paint0_linear_91_34365" x1="74.5" y1="28" x2="74.5" y2="116" gradientUnits="userSpaceOnUse"><stop stop-color="#C08D58"/><stop offset="1" stop-color="#FEF1BA"/></linearGradient></defs></svg>