<svg xmlns="http://www.w3.org/2000/svg" width="132" height="128" fill="none"><g fill-rule="evenodd" clip-path="url('#clip0_91_34400')" clip-rule="evenodd"><path fill="url('#paint0_linear_91_34400')" d="M29.056 108.285c-.507-7.713 2.454-15.736 8.365-19.997 11.772-8.493 17.296-5.222 22.79-4.322 6.318 1.03 9.845-2 9.289-6.812-.358-3.131-.725-6.262-1.083-9.393 2.394-4.452 2.742-3.201-.924-6.843 0 0 2.315-1.22 3.606-3.18 1.302-1.961-2.851-4.802-2.394-5.643.467-.84 7.222-5.922 4.69-6.332-2.534-.41-13.115-9.143-15.082-14.004C53.465 19.794 51.111 11.302 45.736 7c30.589 2.13 55.813 27.72 57.204 58.97 1.282 28.78-18.081 52.748-44.895 58.03 21.17-10.023 38.288-27.24 39.183-52.958.774-22.248-13.253-44.805-35.666-50.407l6.348 3.59c15.667 9.314 25.185 25.15 25.135 43.176-.05 16.005-7.322 32.841-19.601 43.425-15.707 13.544-37.692 17.696-42.65 5.912-.953-2.261-1.53-5.042-1.748-8.443z"/><path fill="#352D25" d="M43.855 24.953c8.256 26.965 9.143 37.618-13.351 53.292-29.595 20.626-7.738 47.182 18.635 45.654 16.184-.938 32.775-8.795 22.884-3.584C28.041 143.517-.676 108.285.013 92.341.76 75.12 7.72 71.965 13.672 59.496c3.988-8.337 1.176-16.922.249-29.97-.519-7.219.768-10.054 4.666-16.474-15.445 11.661-7.209 28.993-5.953 39.266C-.954 34.048-.377-1.673 36.029 3.508c4.447.63 7.02 3.345 7.02 3.345-3.7 2.426-.669 13.258.807 18.1M48 5.32c11.065-8.518 25.829-5.659 34.814.553 14.462 9.998 20.401 31.353 20.18 48.127 0 0-3.598-16.754-13.487-30.708C80.763 10.917 65.497 1.181 48 5.32"/><path fill="#352D25" d="M82.104 112.718a10.11 10.11 0 0 1 1.008 7.739 10.15 10.15 0 0 1-4.78 6.186 10.24 10.24 0 0 1-7.761 1.005 10.18 10.18 0 0 1-6.206-4.764 10.11 10.11 0 0 1-1.007-7.739 10.17 10.17 0 0 1 4.768-6.186 10.2 10.2 0 0 1 7.762-1.005q.599.165 1.168.388L83.61 92 118 55l-37.652 55.481a10.2 10.2 0 0 1 1.746 2.237zm-2.335 6.844a6.75 6.75 0 0 0-.668-5.123 6.78 6.78 0 0 0-4.1-3.153 6.8 6.8 0 0 0-5.139.667 6.75 6.75 0 0 0-3.152 4.088 6.7 6.7 0 0 0 .668 5.122 6.8 6.8 0 0 0 4.1 3.153 6.76 6.76 0 0 0 5.139-.667 6.77 6.77 0 0 0 3.162-4.087z"/><path fill="#352D25" d="M66.536 91.729a10.2 10.2 0 0 0-7.192-3.065 10.2 10.2 0 0 0-7.261 2.896A10.1 10.1 0 0 0 49 98.712a10.1 10.1 0 0 0 2.912 7.222 10.24 10.24 0 0 0 7.192 3.065 10.21 10.21 0 0 0 10.344-10.048c0-.407-.01-.824-.06-1.23l17.555-1.836L132 73 68.232 94a10.2 10.2 0 0 0-1.686-2.271zm-7.232.377a6.76 6.76 0 0 1 4.758 2.023 6.68 6.68 0 0 1 1.926 4.782 6.7 6.7 0 0 1-2.035 4.732 6.76 6.76 0 0 1-4.808 1.914 6.76 6.76 0 0 1-4.758-2.024 6.68 6.68 0 0 1-1.925-4.78 6.67 6.67 0 0 1 2.035-4.733 6.76 6.76 0 0 1 4.807-1.914"/></g><defs><linearGradient id="paint0_linear_91_34400" x1="66" x2="66" y1="7" y2="124" gradientUnits="userSpaceOnUse"><stop stop-color="#C08D58"/><stop offset="1" stop-color="#FEF1BA"/></linearGradient><clipPath id="clip0_91_34400"><path fill="#fff" d="M0 0h132v128H0z"/></clipPath></defs></svg>