<svg width="132" height="128" fill="none" xmlns="http://www.w3.org/2000/svg"><path fill-rule="evenodd" clip-rule="evenodd" d="M92 44.125C92 25.42 79.902 9.435 62.81 2.981a22.265 22.265 0 0 1 5.412 7.637c4.3 10.052 1.016 17.535-5.306 25.48-8.471 10.618-9.156 9.94-10.557 23.496-14.836-22.16 22.024-32.366 5.37-56.079a22.09 22.09 0 0 0-2.161-2.62A47.22 47.22 0 0 0 48.487 0c3.53 2.775 5.797 6.753 6.546 12.55 1.284 9.888-3.658 15.418-7.969 23.476-6.76 12.632-2.492 16.6-.288 28.194-4.172-3.115-6.29-5.612-8.044-10.587-4-11.317-.417-20.125 5.316-29.993C50.54 12.478 48.583 7.41 42.208.082a47.712 47.712 0 0 0-5.733.792c1.412 1.562 2.642 3.207 3.401 4.563 4.322 7.77 2.31 14.082-2.118 20.989-5.936 9.24-5.198 11.512-4.417 22.376-15.852-19.128 6.653-26.035 1.487-41.206-.664-1.953-1.712-3.772-2.878-5.571C13.413 7.75 0 24.432 0 44.125c0 9.323 3.006 17.977 8.14 25.1l-.171.185 1.7 1.82a44.674 44.674 0 0 0 4.472 4.769L46.005 110 77.87 75.999a44.67 44.67 0 0 0 4.471-4.77l1.7-1.819-.181-.185c5.134-7.133 8.14-15.777 8.14-25.1Z" fill="url('#paint0_linear_91_34414')"/><path fill-rule="evenodd" clip-rule="evenodd" d="M77.416 41.983 26 99.299 30.526 103l21.177-12.378c7.662-11.412 28.504-37.474 30.056-49.349.55-4.215.55-4.75-4.354.71h.01Z" fill="#fff"/><path fill-rule="evenodd" clip-rule="evenodd" d="M23.029 94.586a17.869 17.869 0 0 0-13.278 1.698c-3.879 2.173-6.905 5.786-8.152 10.319-1.247 4.534-.49 9.13 1.747 12.897 2.238 3.768 5.957 6.707 10.625 7.918a17.916 17.916 0 0 0 13.278-1.697c3.879-2.174 6.905-5.786 8.152-10.32 1.247-4.533.49-9.129-1.747-12.897-2.238-3.767-5.957-6.707-10.625-7.918Zm-10.316 6.676a11.822 11.822 0 0 1 8.781-1.118c3.09.808 5.553 2.743 7.034 5.238 1.481 2.494 1.982 5.537 1.15 8.529-.83 3.002-2.823 5.393-5.392 6.831a11.814 11.814 0 0 1-8.78 1.118c-3.09-.807-5.553-2.743-7.034-5.237-1.481-2.495-1.982-5.538-1.15-8.529.83-3.002 2.823-5.393 5.391-6.832Z" fill="#352D25"/><path fill-rule="evenodd" clip-rule="evenodd" d="M14.584 41.983 66 99.299 61.474 103 40.298 90.622C32.645 79.21 11.793 53.148 10.24 41.273c-.55-4.215-.55-4.75 4.343.71Z" fill="#fff"/><path fill-rule="evenodd" clip-rule="evenodd" d="M68.971 94.586a17.869 17.869 0 0 1 13.278 1.698c3.879 2.173 6.906 5.786 8.152 10.319 1.247 4.534.49 9.13-1.747 12.897-2.238 3.768-5.957 6.707-10.625 7.918a17.916 17.916 0 0 1-13.278-1.697c-3.879-2.174-6.906-5.786-8.152-10.32-1.247-4.533-.49-9.129 1.747-12.897 2.238-3.767 5.957-6.707 10.625-7.918Zm10.316 6.676a11.822 11.822 0 0 0-8.782-1.118c-3.09.808-5.551 2.743-7.033 5.238-1.481 2.494-1.982 5.537-1.15 8.529.83 3.002 2.823 5.393 5.391 6.831a11.834 11.834 0 0 0 8.792 1.118c3.09-.807 5.552-2.743 7.034-5.237 1.48-2.495 1.982-5.538 1.15-8.529-.83-3.002-2.824-5.393-5.392-6.832h-.01ZM44.525 80.215a5.991 5.991 0 0 1 4.386.551c1.28.705 2.28 1.869 2.688 3.329a5.253 5.253 0 0 1-.58 4.166 5.721 5.721 0 0 1-3.505 2.553 6.05 6.05 0 0 1-4.387-.552c-1.279-.694-2.279-1.868-2.687-3.328a5.252 5.252 0 0 1 .58-4.166 5.72 5.72 0 0 1 3.505-2.553Zm4.01-1.501c-.14.163-.398.183-.58.05a.374.374 0 0 1-.054-.54l30.38-35.076a.412.412 0 0 1 .57-.05.365.365 0 0 1 .053.54l-30.38 35.086.01-.01Zm-4.44-.49a.373.373 0 0 1-.054.54.437.437 0 0 1-.58-.05L13.09 43.628a.374.374 0 0 1 .055-.54.422.422 0 0 1 .57.05l30.379 35.075v.01Zm3.838 4.145a3.989 3.989 0 0 0-2.903-.367 3.822 3.822 0 0 0-2.322 1.695 3.508 3.508 0 0 0-.387 2.757c.269.97.936 1.736 1.785 2.205.849.47 1.881.623 2.902.368a3.784 3.784 0 0 0 2.322-1.695 3.46 3.46 0 0 0 .377-2.757c-.27-.97-.936-1.736-1.785-2.206h.01ZM18.5 104.257a7.407 7.407 0 0 0-5.07 1.971c-1.294 1.218-2.094 2.911-2.094 4.772 0 1.861.8 3.545 2.094 4.772 1.293 1.218 3.092 1.971 5.07 1.971a7.407 7.407 0 0 0 5.07-1.971c1.294-1.218 2.094-2.901 2.094-4.772 0-1.871-.8-3.545-2.094-4.772-1.293-1.218-3.092-1.971-5.07-1.971Zm-6.007 1.09C14.03 103.901 16.154 103 18.5 103c2.346 0 4.47.891 6.007 2.347C26.043 106.792 27 108.792 27 111c0 2.208-.947 4.208-2.493 5.653C22.97 118.099 20.846 119 18.5 119c-2.346 0-4.47-.891-6.007-2.347C10.957 115.208 10 113.208 10 111c0-2.208.947-4.208 2.493-5.653Z" fill="#352D25"/><path fill-rule="evenodd" clip-rule="evenodd" d="M73.5 104.257a7.407 7.407 0 0 0-5.07 1.971c-1.295 1.218-2.094 2.911-2.094 4.772 0 1.861.8 3.545 2.094 4.772 1.293 1.218 3.092 1.971 5.07 1.971 1.978 0 3.766-.753 5.06-1.971 1.305-1.218 2.104-2.901 2.104-4.772 0-1.871-.8-3.545-2.104-4.772-1.294-1.218-3.082-1.971-5.06-1.971Zm-6.007 1.09C69.03 103.901 71.154 103 73.5 103c2.346 0 4.47.891 6.007 2.347C81.043 106.792 82 108.792 82 111c0 2.208-.957 4.208-2.493 5.653C77.97 118.099 75.846 119 73.5 119c-2.346 0-4.47-.891-6.007-2.347C65.957 115.208 65 113.208 65 111c0-2.208.947-4.208 2.493-5.653Z" fill="#352D25"/><defs><linearGradient id="paint0_linear_91_34414" x1="46" y1="0" x2="46" y2="110" gradientUnits="userSpaceOnUse"><stop stop-color="#C08D58"/><stop offset="1" stop-color="#FEF1BA"/></linearGradient></defs></svg>