<svg xmlns="http://www.w3.org/2000/svg" width="348" height="90" fill="none"><path fill="url('#paint0_linear_460_12202')" d="M319.674 4.001c.266 1.155-.43 2.38-1.523 2.706.282.794.198 1.654-.519 2.406-1.3 1.346-3.471.903-5.026.342a10.4 10.4 0 0 1-4.806-3.601c-12.242-1.098-24.719.969-35.976 5.942a74 74 0 0 0-7.702 3.977c21.518-1 44.525 3.403 61.444 17.466a67 67 0 0 1 5.763 5.41.8.8 0 0 1 .169.266c.05-.01.102-.024.158-.022 4.854-.257 9.763 1.099 13.785 3.823.963.654 1.975 1.406 2.319 2.571.311 1.057-.009 2.244-.994 2.821-.985.578-2.142.366-3.113-.107a27 27 0 0 1-1.616-.883c.63.672 1.227 1.37 1.735 2.117.642.938 1.181 2.048 1.159 3.216-.025 1.194-.787 2.253-1.94 2.595-1.065.316-2.184-.036-3.134-.53-2.327-1.223-4.348-3.412-5.827-5.548a25 25 0 0 1-.552-.849c.182.605.381 1.206.608 1.797a32 32 0 0 0 1.783 3.876c.683 1.267 1.305 2.613.946 4.089-.334 1.364-1.529 2.25-2.925 2.212-1.432-.048-2.598-1.012-3.398-2.128-1.17-1.633-1.82-3.537-2.083-5.506a33 33 0 0 1-.393 1.367c-.366 1.17-1.021 2.345-2.25 2.756-2.636.883-4.355-1.94-4.52-4.18-.181-2.394.8-4.701 2.171-6.615 1.734-2.427 4.063-4.406 6.652-5.872a.4.4 0 0 1-.102-.091c-15.511-16.388-38.472-22.436-60.465-22.39-1.137.002-2.268.037-3.394.075 1.933.825 3.83 1.734 5.618 2.847 1.995 1.248 4.892 3.115 4.886 5.797-.004 2.7-2.956 4.027-5.284 3.542-2.591-.541-4.893-2.642-6.529-4.62a18.2 18.2 0 0 1-3.574-7.035.8.8 0 0 1-.096-.28c-20.586 1.49-40.528 7.996-60.015 14.588-4.387 1.485-8.773 2.978-13.168 4.442 6.211-.246 12.974.242 17.231 5.24 1.03 1.207 1.755 2.76 1.388 4.374-.361 1.603-1.793 2.608-3.375 2.76-1.723.17-3.523-.43-5.119-1.026-1.7-.632-3.332-1.468-4.875-2.415-3.455-2.118-6.503-4.825-9.5-7.534-5.457 1.776-10.944 3.48-16.482 5.008a234 234 0 0 1-32.256 6.533c-18.355 2.382-36.983 2.586-55.384.68 13.199 9.45 29.528 13.052 45.467 14.712 6.506.678 13.042 1.047 19.578 1.394a13.6 13.6 0 0 1 1.231-5.283c.753-1.624 1.85-3.523 3.447-4.445 1.754-1.015 3.586.221 4.07 2.012.458 1.694-.228 3.514-1.29 4.835-1.026 1.28-2.397 2.162-3.725 3.087 9.056.497 18.101 1.086 27.063 2.565 9.169 1.52 18.205 3.973 26.555 8.11.052.028.093.063.141.096a.94.94 0 0 1 .489-.32c2.613-.69 5.406-.334 7.784.93 1.213.644 2.367 1.607 2.767 2.975a3.01 3.01 0 0 1-.787 3.02c.148.666.105 1.36-.303 1.95-.443.631-1.218.943-1.978.936-.012 1.195-1.094 2.158-2.311 2.099-1.501-.074-2.697-1.395-3.62-2.444-1.91-2.164-3.217-4.815-3.821-7.64a.9.9 0 0 1 .001-.4c-14.683-6.983-31.067-8.81-47.129-9.815a168 168 0 0 1 23.106 9.695c3.09-.016 6.527.699 8.349 3.433.441.666.737 1.44.48 2.24-.258.8-.995 1.338-1.767 1.559-1.615.464-3.114-.474-4.257-1.516-1.369-1.245-2.739-2.562-3.792-4.094a.9.9 0 0 1-.201-.23 165 165 0 0 0-29.044-11.44.7.7 0 0 1-.175-.07c-14.826-.817-29.727-1.586-44.084-5.64a87 87 0 0 1-5.823-1.861 39 39 0 0 1 5.931 3.984c1.221 1.001 2.388 2.08 3.481 3.217.983 1.025 1.956 2.116 2.357 3.514.349 1.211.124 2.627-.75 3.567-.861.92-2.136 1.093-3.315.83-2.886-.641-5-3.166-6.432-5.593-1.612-2.728-2.807-5.733-4.056-8.66-.064-.064-.119-.13-.182-.194a.86.86 0 0 1-.202-.324c-.306-.265-.376-.678-.27-1.022a.82.82 0 0 1 .08-.604c-5.748-2.349-11.211-5.37-16.115-9.217a1 1 0 0 1-.26-.312c-1.998-.233-3.998-.487-5.99-.773a240 240 0 0 1-35.575-7.893c-.049.01-.093.022-.14.026a.84.84 0 0 1-.847-.339 231 231 0 0 1-25.606-9.571 242 242 0 0 1-7.352-3.417c-1.023-.494-.451-2.198.578-1.693a232.6 232.6 0 0 0 31.93 12.67q3.749-6.2 7.745-12.245c2.168-3.278 4.66-7.397 9.05-7.54 1.65-.054 3.428.559 4.461 1.898 1.144 1.493 1.163 3.548.457 5.24-.846 2.034-2.51 3.633-4.032 5.18-1.392 1.419-2.851 2.778-4.404 4.023-2.565 2.063-5.413 3.805-8.505 4.887a234 234 0 0 0 25.674 5.935c18.918 3.26 38.243 4.26 57.41 2.903.03-.044.055-.092.093-.137 2.432-3.035 2.642-7.077 3.821-10.655 1.221-3.691 3.725-6.842 7.146-8.724 1.378-.756 3.113-1.333 4.663-.775 1.723.619 2.543 2.451 2.439 4.193-.106 1.777-1.008 3.493-1.847 5.023a26 26 0 0 1-3.278 4.66 27 27 0 0 1-7.432 5.936c.849-.082 1.694-.16 2.539-.246a231 231 0 0 0 32.374-5.772c11.597-2.938 22.942-6.747 34.265-10.587 10.087-3.418 20.251-6.897 30.553-9.79q.005-.051.022-.106c-.127-2.874.2-5.733 1.026-8.496.868-2.908 2.262-6.16 4.509-8.281 2.024-1.907 5.697-2.466 7.34.227 1.734 2.833-.275 5.918-2.246 7.968-2.573 2.674-5.218 5.285-7.838 7.912 10.47-2.814 21.096-4.934 31.929-5.695q.052-.043.096-.078c.02-.281.15-.558.447-.743 10.701-6.72 23.082-10.571 35.67-11.266a72 72 0 0 1 9.387.105.8.8 0 0 1 .213-.292 7.97 7.97 0 0 1 6.214-3.375c1.341-.05 2.669.279 3.857.885 1.146.585 2.302 1.492 2.607 2.81zm20.665 40.043c1.252.722 2.49 1.477 3.755 2.171.457.253 1.199.685 1.732.374.541-.313.182-1.016-.114-1.368-.775-.92-2.062-1.572-3.101-2.134a21 21 0 0 0-3.486-1.464 20.6 20.6 0 0 0-4.532-.9zm-9.278 11.348c.462 1.002 1.144 2.239 2.191 2.727 1.146.542 2.031-.276 1.872-1.473s-1.006-2.295-1.519-3.36a30 30 0 0 1-1.41-3.394 32 32 0 0 1-1.237-4.68c-.127.272-.241.545-.36.816-.708 3.145-.904 6.38.471 9.362zm-5.298-9.725c-1.284 1.5-2.447 3.319-2.703 5.316-.119.944-.062 1.943.358 2.808.386.8 1.418 1.594 2.231.806.719-.7.855-2.006 1.102-2.927a44 44 0 0 1 1.064-3.47c.322-.906.685-1.798 1.066-2.686.258-1.136.577-2.26.925-3.37a19 19 0 0 0-4.035 3.522zm6.949-3.742c1.03 3.816 3.222 7.311 6.3 9.817.674.543 4.046 2.984 4.141.677.033-.902-.555-1.824-1.088-2.501a32 32 0 0 0-2.829-3.104c-1.956-1.895-4.165-3.524-6.519-4.886zm-62.808-14.73c.908.545 2.029.998 3.103.774.074-.014.154-.038.227-.06a52 52 0 0 1-8.843-6.63c1.288 2.416 3.167 4.509 5.509 5.92zM211.469 82.27c.073-.466-.113-1.022-.343-1.336-.573-.797-1.536-1.315-2.43-1.672a9 9 0 0 0-2.929-.642c.86.29 1.7.632 2.511 1.068 1.138.608 2.361 1.489 3.191 2.582m-6.872 2.04c.603.826 1.285 1.632 2.056 2.306.317.28.787.693 1.242.665.126-.008.45-.117.427-.283a.94.94 0 0 1 .054-.48c-.447-.203-.875-.457-1.277-.695a15 15 0 0 1-2.225-1.647c-.36-.323-.699-.654-1.026-1.005.233.395.48.778.75 1.147zm1.426-1.49c.687.618 1.45 1.158 2.244 1.618.469.268 1.761 1.132 2.285.613.452-.445-.332-1.436-.598-1.76-.6-.737-1.342-1.327-2.151-1.82-1.318-.794-2.79-1.277-4.279-1.672a13.2 13.2 0 0 0 2.499 3.022m-24.11 1.104c.404.13 1.297.214 1.504-.311.192-.472-.647-1.235-.924-1.502a5.9 5.9 0 0 0-1.849-1.17c-.933-.382-1.914-.568-2.904-.646.729.831 1.525 1.594 2.33 2.355.539.51 1.121 1.042 1.838 1.27zM151.7 60.276c.105-.953-.439-2.677-1.669-1.865-.542.356-.961.931-1.34 1.448-.46.634-.868 1.31-1.197 2.025a12.3 12.3 0 0 0-1.057 4.018c2.092-1.481 4.964-2.934 5.26-5.62zm-54.086 6.942c1.062 2.233 2.334 4.558 4.401 6.006.792.559 1.926 1.214 2.95 1.042-2.687-2.87-5.377-5.736-8.07-8.61.24.52.475 1.038.717 1.554zm8.482 5.646a2.5 2.5 0 0 0-.113-.959c-.378-1.138-1.339-2.048-2.154-2.888a37 37 0 0 0-2.926-2.697 39 39 0 0 0-3.062-2.266zM43.767 35.45a45.3 45.3 0 0 0 8-7.372c1.107-1.304 2.215-2.988 1.811-4.781a2.56 2.56 0 0 0-.805-1.371.8.8 0 0 1-.186.39c-2.985 3.533-5.974 7.07-8.964 10.6-1.708 2.021-3.48 4.085-5.608 5.671 2.042-.777 3.963-1.859 5.744-3.135zm-1.233-3.99c2.86-3.381 5.716-6.766 8.58-10.152a.8.8 0 0 1 .156-.145 4.6 4.6 0 0 0-1.035-.13c-3.696-.058-5.906 3.965-7.674 6.64a363 363 0 0 0-6.403 10.04c2.497-1.615 4.465-3.976 6.377-6.245zm94.47 3.537c.492-1.25.952-3.316-.493-4.154-1.253-.722-2.929.168-4.018.825-2.996 1.813-4.968 4.716-5.967 8.029-.521 1.724-.873 3.527-1.37 5.267a184 184 0 0 0 10.026-13.69c.64-.963 2.117.04 1.477 1.002a183 183 0 0 1-11.299 15.25c5.156-2.648 9.527-7.117 11.648-12.534zm63.431 12.015c1.026.288 2.468.659 3.499.119a119 119 0 0 1-15.158-6.862c3.487 2.913 7.26 5.51 11.659 6.743m4.466-1.431c-.004-.899-.618-1.867-1.167-2.49-1.997-2.288-4.945-3.574-7.88-4.155-2.178-.433-4.402-.503-6.63-.44a117 117 0 0 0 15.669 7.086zm28.802-30.934c1.741-1.755 4.674-3.927 4.48-6.703a2.8 2.8 0 0 0-.242-.959 84 84 0 0 0-6.935 10.38c.902-.906 1.798-1.816 2.697-2.718m2.886-8.838c-.09-.025-.171-.052-.268-.068-1.199-.19-2.314.378-3.163 1.177-1.892 1.775-3.05 4.585-3.826 7.01a24 24 0 0 0-.979 4.588 84 84 0 0 1 8.236-12.707m34.005 15.95c-2.007-1.242-4.157-2.2-6.337-3.093a50.8 50.8 0 0 0 10.446 8.046c.06-.152.108-.306.118-.479.05-.904-.64-1.688-1.241-2.275-.881-.85-1.947-1.552-2.984-2.192zm38.684-16.915c1.043 1.367 2.434 2.412 4.066 2.976.742.253 1.712.56 2.5.336.558-.158.864-.588.543-1.114-.353-.584-1.035-.969-1.615-1.283a8.7 8.7 0 0 0-2.243-.821 8.8 8.8 0 0 0-3.251-.094m4.838-2.705a6 6 0 0 0-3.706.807c2.277-.05 4.604.605 6.376 1.973.099.075.196.162.289.247.147-.101.323-.16.546-.152.056.002.112-.018.184-.112a.62.62 0 0 0 .141-.377c.009-.381-.361-.804-.657-1.063-.867-.753-2.041-1.213-3.175-1.332z"/><defs><linearGradient id="paint0_linear_460_12202" x1="304.18" x2="55.999" y1="113.273" y2="-55.268" gradientUnits="userSpaceOnUse"><stop stop-color="#C08D58"/><stop offset="1" stop-color="#FEF1BA"/></linearGradient></defs></svg>