<svg width="132" height="128" fill="none" xmlns="http://www.w3.org/2000/svg"><path fill-rule="evenodd" clip-rule="evenodd" d="M20.861 74.026c-.367-2.514-1.857-4.663-3.973-6.099-2.116-1.435-4.867-2.174-7.728-1.853-2.87.322-5.324 1.627-6.963 3.48C.56 71.407-.276 73.817.082 76.331c.367 2.514 1.857 4.663 3.973 6.098 2.116 1.436 4.867 2.166 7.738 1.853 2.87-.322 5.323-1.627 6.962-3.48.259-.295.497-.6.716-.913l15.485 8.177L86 96 20.831 76.575a8.106 8.106 0 0 0 .04-2.55h-.01Zm-6.148-3.645c1.4.948 2.384 2.375 2.632 4.036.238 1.662-.318 3.254-1.4 4.48-1.093 1.227-2.712 2.088-4.61 2.306-1.897.208-3.714-.279-5.115-1.227-1.4-.948-2.384-2.375-2.632-4.037-.238-1.661.308-3.253 1.4-4.48 1.093-1.226 2.712-2.087 4.61-2.305 1.896-.209 3.714.27 5.115 1.227Z" fill="#352D25"/><path fill-rule="evenodd" clip-rule="evenodd" d="M47.138.017C27.134 11.512 16.487 29.98 30.131 48.637c2.52 3.443 5.249 6.53 7.67 9.625-2.947-13.546-13.247-24.067-3.225-37.534-4.654 25.327 12.046 28.752 10.032 53.01.189 5.573-1.984 12.25-8.077 21.014-8.355 12.033 21.384-10.494 18.635-32.387 0 0 9.814 15.094-4.515 33.378-14.319 18.276 4.515 28.162 9.814 30.214L65.764 128s-12.493-8.564-6.867-17.806C67.163 96.63 71.34 95.674 72.045 79.18c0 0 6.47 5.017 3.532 16.355-2.947 11.346 1.23 18.832 7.85 21.901 6.618 3.069 8.96 2.2 11.39 2.617-11.778-8.512-12.601-11.981-4.881-27.57 5.676-11.46 24.043-33.135-4.476-24.24-8.593 2.678-13.495 2.713-14.09-.896-.585-3.608-1.33-8.077-3.334-8.077-2.005 0-3.652-.826-3.652-.826l-.119-3.608s-2.947-.313-3.999-.826c-1.061-.513.467-4.026.467-4.026s-6.946-.313-8.008-.826c-1.062-.512 6.35-13.102 4.118-15.676-2.233-2.582-7.65-3.2-9.07-7.842-1.369-4.512-1.3-13.311-.645-25.64l.01.017Z" fill="url('#paint0_linear_91_34408')"/><path fill-rule="evenodd" clip-rule="evenodd" d="M20.861 96.979c-.367 2.513-1.857 4.662-3.973 6.097-2.116 1.435-4.867 2.165-7.728 1.852-2.87-.321-5.324-1.626-6.963-3.479C.56 99.597-.276 97.188.082 94.674c.367-2.514 1.857-4.662 3.973-6.097 2.116-1.435 4.867-2.166 7.738-1.853 2.87.322 5.323 1.627 6.962 3.48.259.295.497.6.716.913l15.485-8.185L86 75 20.831 94.422c.15.826.16 1.678.04 2.548l-.01.009Zm-6.148 3.644c1.4-.948 2.384-2.374 2.632-4.036.238-1.66-.318-3.252-1.4-4.479-1.093-1.226-2.712-2.096-4.61-2.305-1.897-.209-3.714.27-5.115 1.227-1.4.948-2.384 2.374-2.632 4.035-.238 1.662.308 3.253 1.4 4.48 1.093 1.226 2.712 2.087 4.61 2.304 1.896.209 3.714-.269 5.115-1.226Z" fill="#352D25"/><defs><linearGradient id="paint0_linear_91_34408" x1="62.5" y1="0" x2="62.5" y2="128" gradientUnits="userSpaceOnUse"><stop stop-color="#C08D58"/><stop offset="1" stop-color="#FEF1BA"/></linearGradient></defs></svg>