<svg xmlns="http://www.w3.org/2000/svg" width="132" height="128" fill="none"><path fill="url('#paint0_linear_91_34372')" fill-rule="evenodd" d="M66 111c29.743 0 54-22.458 54-50.005S95.754 11 66 11 12 33.458 12 60.995 36.258 111 66 111" clip-rule="evenodd"/><path fill="#fff" fill-rule="evenodd" d="M77.346 39.109c0-.61-.764-1.109-1.685-1.109s-1.673.51-1.66 1.12l.654 71.88a67 67 0 0 0 3.345-.565z" clip-rule="evenodd"/><path fill="#fff" fill-rule="evenodd" d="M98.419 39.916c.882 0 1.581-.44 1.581-.963 0-.532-.722-.953-1.593-.953l-22.837.084c-.87 0-1.581.44-1.57.963 0 .523.722.953 1.593.953zM99.419 91.916c.882 0 1.581-.43 1.581-.963S100.278 90 99.407 90l-22.826.084c-.882 0-1.581.43-1.581.963s.722.953 1.593.953zM99.205 87.919c.438 0 .795-.207.795-.46 0-.252-.357-.459-.806-.459l-22.399.072c-.438 0-.795.207-.795.468 0 .253.357.46.806.46zM99.205 84.928c.438 0 .795-.207.795-.468 0-.253-.357-.46-.807-.46l-22.398.081c-.438 0-.795.207-.795.46 0 .26.369.459.807.459l22.41-.081zM99.205 82.928c.438 0 .795-.207.795-.468 0-.253-.357-.46-.806-.46l-22.399.072c-.438 0-.795.216-.795.468 0 .253.369.46.806.46l22.399-.081zM98.205 79.928c.45 0 .795-.207.795-.468 0-.253-.369-.46-.806-.46l-22.399.081c-.438 0-.795.207-.795.46 0 .252.369.459.806.459l22.399-.081zM98.205 76.91c.438 0 .795-.205.795-.455S98.643 76 98.194 76l-22.399.08c-.438 0-.795.206-.795.465 0 .25.369.455.806.455l22.399-.08zM98.205 73.92c.438 0 .795-.206.795-.465 0-.25-.357-.455-.806-.455l-22.399.08c-.438 0-.795.206-.795.465 0 .25.357.455.795.455l22.399-.08zM98.205 70.919c.438 0 .795-.207.795-.46 0-.252-.357-.459-.806-.459l-22.399.081c-.438 0-.795.207-.795.46 0 .252.357.459.806.459zM98.205 68.928c.438 0 .795-.216.795-.468 0-.262-.357-.46-.795-.46l-22.41.081c-.438 0-.795.207-.795.46 0 .252.357.459.807.459l22.41-.081zM98.216 65.919c.438 0 .795-.207.784-.46 0-.26-.358-.459-.796-.459l-22.409.081c-.438 0-.795.207-.795.46 0 .252.369.459.807.459zM98.205 62.928c.438 0 .795-.216.795-.468 0-.262-.369-.46-.806-.46l-22.399.081c-.45 0-.795.207-.795.46 0 .252.357.459.806.459zM98.205 59.919c.438 0 .795-.207.795-.46 0-.26-.369-.459-.806-.459l-22.399.081c-.438 0-.795.207-.795.46 0 .26.357.459.806.459zM98.205 56.919c.438 0 .795-.207.795-.46 0-.252-.357-.459-.806-.459l-22.399.081c-.438 0-.795.207-.795.46 0 .26.357.459.795.459l22.399-.081zM98.205 53.919c.438 0 .795-.207.795-.46 0-.26-.357-.459-.806-.459l-22.399.072c-.438 0-.795.216-.795.468 0 .262.357.46.806.46zM98.205 51.928c.438 0 .795-.207.795-.468 0-.253-.369-.46-.806-.46l-22.399.081c-.438 0-.795.207-.795.46 0 .252.369.459.806.459l22.399-.081zM98.205 48.919c.438 0 .795-.207.795-.46 0-.252-.369-.459-.806-.459l-22.399.072c-.438 0-.795.216-.795.468 0 .253.369.46.806.46zM98.205 45.92c.45 0 .795-.206.795-.465 0-.25-.369-.455-.806-.455l-22.399.08c-.45 0-.795.215-.795.465s.369.455.806.455zM98.205 42.91c.438 0 .795-.205.795-.455S98.643 42 98.194 42l-22.399.08c-.438 0-.795.206-.795.465s.357.455.795.455l22.399-.08zM35 101.989c23.276-58.663 32.42-81.76 36-90.815A56 56 0 0 0 67.41 11c-3.359 6.544-8.762 16.228-12.574 18.88-5.915 4.098-8.343 5.294-8.343 5.294L35.012 102zm16.733-62.283c1.825 0 3.312 1.381 3.312 3.098 0 1.718-1.487 3.098-3.312 3.098s-3.311-1.38-3.311-3.098 1.487-3.098 3.311-3.098" clip-rule="evenodd"/><path fill="#fff" fill-rule="evenodd" d="M69 101.989C50.877 57.057 41.175 33.028 36 20.196A54 54 0 0 1 39.799 18c3.022 5.215 6.48 10.397 9.126 12.215 5.986 4.079 8.456 5.269 8.456 5.269L69 102zM51.983 39.995c-1.847 0-3.352 1.374-3.352 3.084s1.505 3.083 3.352 3.083 3.351-1.374 3.351-3.083-1.505-3.084-3.352-3.084" clip-rule="evenodd"/><path fill="#352D25" fill-rule="evenodd" d="M65.994 6.895c-16.169 0-30.796 6.064-41.396 15.85-10.589 9.797-17.15 23.317-17.15 38.26 0 14.944 6.55 28.464 17.15 38.26 10.588 9.798 25.227 15.851 41.396 15.851s30.797-6.053 41.397-15.85c10.6-9.786 17.149-23.317 17.149-38.26 0-14.944-6.549-28.464-17.149-38.261-10.589-9.786-25.228-15.85-41.397-15.85M19.332 17.868C31.275 6.83 47.771 0 65.994 0c18.224 0 34.719 6.83 46.674 17.868C124.61 28.906 132 44.163 132 60.995s-7.39 32.1-19.332 43.137C100.725 115.17 84.218 122 65.994 122c-18.223 0-34.719-6.83-46.662-17.868S0 77.837 0 60.995c0-16.843 7.39-32.09 19.332-43.127" clip-rule="evenodd"/><defs><linearGradient id="paint0_linear_91_34372" x1="66" x2="66" y1="11" y2="111" gradientUnits="userSpaceOnUse"><stop stop-color="#C08D58"/><stop offset="1" stop-color="#FEF1BA"/></linearGradient></defs></svg>