<svg xmlns="http://www.w3.org/2000/svg" width="39" height="40" fill="none"><path fill="#7360F2" d="M34.427 3.895C33.433 2.981 29.411.067 20.442.028c0 0-10.572-.632-15.722 4.086C1.856 6.973.846 11.168.737 16.362.627 21.557.494 31.29 9.893 33.93h.008l-.008 4.031s-.063 1.633 1.017 1.96c1.3.407 2.066-.835 3.31-2.17.681-.735 1.62-1.813 2.333-2.633 6.433.539 11.37-.696 11.934-.875 1.3-.422 8.648-1.36 9.837-11.093 1.237-10.045-.594-16.388-3.897-19.255m1.088 18.521c-1.01 8.124-6.965 8.64-8.06 8.991-.47.149-4.814 1.227-10.268.875 0 0-4.07 4.898-5.338 6.171-.414.414-.868.375-.86-.445 0-.54.03-6.695.03-6.695q-.01 0 0 0c-7.966-2.202-7.496-10.49-7.41-14.826.086-4.335.908-7.89 3.334-10.28 4.359-3.945 13.335-3.359 13.335-3.359 7.583.032 11.214 2.312 12.06 3.078 2.793 2.39 4.218 8.108 3.177 16.49m-10.878-6.312c.031.672-.978.72-1.01.047-.086-1.718-.892-2.554-2.55-2.648-.674-.039-.611-1.047.054-1.008 2.183.118 3.396 1.368 3.506 3.61m1.589.883c.078-3.312-1.996-5.905-5.932-6.194-.666-.047-.595-1.055.07-1.008 4.539.328 6.957 3.445 6.871 7.226-.008.671-1.025.64-1.01-.024m3.678 1.047c.008.672-1.01.68-1.01.008-.047-6.367-4.296-9.835-9.453-9.874-.666-.008-.666-1.008 0-1.008 5.767.04 10.408 4.015 10.463 10.874m-.885 7.663v.016c-.845 1.484-2.426 3.124-4.053 2.6l-.016-.023c-1.651-.46-5.54-2.46-7.998-4.413-1.268-1-2.426-2.18-3.318-3.312a25.4 25.4 0 0 1-2.41-3.64c-1.668-3.008-2.035-4.351-2.035-4.351-.525-1.625 1.11-3.203 2.606-4.047h.015c.72-.375 1.409-.25 1.87.305 0 0 .971 1.156 1.386 1.726.391.531.915 1.383 1.19 1.86.477.85.18 1.718-.29 2.077l-.94.75c-.477.383-.414 1.094-.414 1.094s1.393 5.257 6.597 6.585c0 0 .712.062 1.096-.414l.751-.937c.36-.47 1.229-.766 2.082-.29 1.15.649 2.614 1.656 3.584 2.57.548.446.673 1.125.297 1.844"/></svg>